<svg xmlns="http://www.w3.org/2000/svg" viewBox="0 0 93.5 93.5"><defs><style>.cls-1{fill:#a04e9e;}</style></defs><g id="build"><path class="cls-1" d="M82.19,65.7a1.34,1.34,0,0,0-1.47.29L66,80.76a1.34,1.34,0,0,0-.3,1.47,1.36,1.36,0,0,0,1.25.84H81.68A1.36,1.36,0,0,0,83,81.72V66.94A1.33,1.33,0,0,0,82.19,65.7Zm-12,14.67L80.32,70.21V80.37Z"/><path class="cls-1" d="M92,44a1.34,1.34,0,0,0-1.47.29l-4,4V20.84a1.35,1.35,0,0,0-1.35-1.35H74.7l3.77-3.77h0l3.63-3.63a4.12,4.12,0,0,0,0-5.83l-4.2-4.2a4.12,4.12,0,0,0-5.83,0L68.44,5.69l-4.39,4.39-9.41,9.41h-42V6.12a1.34,1.34,0,0,0-1.35-1.35A10.64,10.64,0,0,0,.7,15.4V72.81a1.36,1.36,0,0,0,0,.29,10.22,10.22,0,0,0,10.21,9.46H52.25l-7.78,7.78a1.35,1.35,0,0,0,1,2.31h46A1.35,1.35,0,0,0,92.8,91.3v-46A1.35,1.35,0,0,0,92,44ZM74,4a1.41,1.41,0,0,1,2,0l4.2,4.2a1.42,1.42,0,0,1,0,2l-2.68,2.68-6.21-6.2ZM69.4,8.56l6.21,6.2-2.48,2.48L66.92,11ZM90.1,60.47H87.6a1.35,1.35,0,1,0,0,2.7h2.5v4.07H87.6a1.36,1.36,0,0,0,0,2.71h2.5V74H87.6a1.35,1.35,0,0,0,0,2.7h2.5V80.8H87.6a1.35,1.35,0,0,0,0,2.7h2.5V90H48.69L62.34,76.29a1.35,1.35,0,0,0,0-1.91l-.19-.16a1.36,1.36,0,0,0-1.72.16L55,79.86h-44a7.49,7.49,0,0,1-7.53-7.29c0-.26,0-.51.06-.77h0c0-.12,0-.24.06-.36v0c0-.1,0-.21.07-.31a.29.29,0,0,1,0-.09l.06-.26a.83.83,0,0,0,0-.15l.06-.2c0-.07.05-.14.07-.2a1.21,1.21,0,0,0,0-.14L4,69.78l0-.07a3.09,3.09,0,0,1,.14-.32v0a8,8,0,0,1,5.53-4.32h0l.34-.06h.06l.31,0h.08l.31,0h.49a1.34,1.34,0,0,0,1.35-1.35v-9.8a1.35,1.35,0,0,0-2.7,0v8.54A10.5,10.5,0,0,0,3.91,65.2c-.18.18-.34.35-.51.54V15.4A8,8,0,0,1,10,7.58V48.32h0a1.35,1.35,0,1,0,2.7,0h0V22.19H51.94l-7.47,7.48a1.35,1.35,0,1,0,1.91,1.91l9.78-9.78h0L65,13l6.21,6.21-.73.72h0L43.23,47.14,37,40.94l5.37-5.38a1.35,1.35,0,0,0-1.91-1.91L34.15,40l-.09.11,0,0L34,40.2l0,0,0,.08,0,.05,0,.08v0L31.2,48,29.41,53a1.66,1.66,0,0,0-.06.21H24.86a1.35,1.35,0,0,0,0,2.7H62.29a1.35,1.35,0,1,0,0-2.7H35.43l8.25-2.91h0l.09,0h0l.1-.06,0,0,.09-.06,0,0a.52.52,0,0,0,.11-.1L72,22.19H83.74V51.07L64.4,70.41a1.35,1.35,0,0,0,0,1.91.87.87,0,0,0,.11.09,1.29,1.29,0,0,0,.85.31,1.31,1.31,0,0,0,.85-.31.43.43,0,0,0,.1-.09h0L90.1,48.54Zm-49.34-12-3.88,1.37L34.3,47.28l1.37-3.87Z"/></g></svg>