<svg xmlns="http://www.w3.org/2000/svg" viewBox="0 0 93.5 93.5"><defs><style>.cls-1{fill:#a04e9e;}</style></defs><g id="Layer_40" data-name="Layer 40"><path class="cls-1" d="M46.75,92.23A45.48,45.48,0,1,1,92.23,46.75,45.53,45.53,0,0,1,46.75,92.23Zm0-87.82A42.34,42.34,0,1,0,89.09,46.75,42.38,42.38,0,0,0,46.75,4.41Z"/><path class="cls-1" d="M92.19,45.21H22.87V35.59a12,12,0,0,1,12-12H85.89l.44.78a45.05,45.05,0,0,1,5.75,19.14ZM26,42.13H88.86a41.83,41.83,0,0,0-4.78-15.41H34.82A8.88,8.88,0,0,0,26,35.59Z"/><path class="cls-1" d="M34.43,40.59a5.4,5.4,0,1,1,5.39-5.4A5.4,5.4,0,0,1,34.43,40.59Zm0-7.71a2.32,2.32,0,1,0,2.31,2.31A2.32,2.32,0,0,0,34.43,32.88Z"/><path class="cls-1" d="M46.75,40.59a5.4,5.4,0,1,1,5.39-5.4A5.4,5.4,0,0,1,46.75,40.59Zm0-7.71a2.32,2.32,0,1,0,2.31,2.31A2.32,2.32,0,0,0,46.75,32.88Z"/><path class="cls-1" d="M59.08,40.61a5.42,5.42,0,1,1,5.41-5.42A5.42,5.42,0,0,1,59.08,40.61Zm0-7.7a2.29,2.29,0,1,0,2.28,2.28A2.29,2.29,0,0,0,59.08,32.91Z"/><path class="cls-1" d="M46.75,92.2a45.36,45.36,0,0,1-23.12-6.33l-.76-.44V42.13H92l.1,1.43c.08,1.21.12,2.23.12,3.19A45.5,45.5,0,0,1,46.75,92.2ZM26,83.66A42.37,42.37,0,0,0,89.12,46.75c0-.49,0-1,0-1.54H26Z"/></g></svg>