<svg xmlns="http://www.w3.org/2000/svg" viewBox="0 0 93.5 93.5"><defs><style>.cls-1,.cls-2{fill:#a04e9e;}.cls-1{fill-rule:evenodd;}</style></defs><g id="manage_validator" data-name="manage validator"><path class="cls-1" d="M60.52,62.07C49.9,53.76,56.26,44,46.52,38.72a11.9,11.9,0,0,0-9.82.63c12.46,4.32,5.1,19.46-5.63,9.72C30.73,56.2,34.18,60.28,40.55,61c4.41.89,10.66,1.84,15.3,8.33l.15.2"/></g><g id="Layer_40" data-name="Layer 40"><path class="cls-2" d="M84.56,11.38H8.94a7.57,7.57,0,0,0-7.56,7.56V75.42A7.57,7.57,0,0,0,8.94,83H84.56a7.57,7.57,0,0,0,7.56-7.56V18.94A7.57,7.57,0,0,0,84.56,11.38Zm4.54,64A4.54,4.54,0,0,1,84.56,80H8.94A4.54,4.54,0,0,1,4.4,75.42V26.5H89.1V75.42Zm0-51.94H4.4V18.94A4.54,4.54,0,0,1,8.94,14.4H84.56a4.54,4.54,0,0,1,4.54,4.54v4.54Z"/><path class="cls-2" d="M12,17.43H10.45a1.51,1.51,0,0,0,0,3H12a1.51,1.51,0,1,0,0-3Z"/><path class="cls-2" d="M18.59,17.55a1.36,1.36,0,0,0-1.15,0,1.58,1.58,0,0,0-.5.32,1.53,1.53,0,0,0,0,2.14,1.77,1.77,0,0,0,.5.32,1.44,1.44,0,0,0,1.15,0,1.77,1.77,0,0,0,.5-.32,1.53,1.53,0,0,0,0-2.14A1.58,1.58,0,0,0,18.59,17.55Z"/><path class="cls-2" d="M24.64,17.53a1.51,1.51,0,0,0-1.65.34,1.8,1.8,0,0,0-.32.49,1.44,1.44,0,0,0,0,1.15A1.71,1.71,0,0,0,23,20a1.53,1.53,0,0,0,2.15,0,1.51,1.51,0,0,0,.31-.5,1.25,1.25,0,0,0,.13-.57A1.54,1.54,0,0,0,24.64,17.53Z"/><path class="cls-2" d="M83.05,17.43H31.63a1.51,1.51,0,1,0,0,3H83.05a1.51,1.51,0,0,0,0-3Z"/></g></svg>