<?xml version="1.0" encoding="utf-8"?>
<!-- Generator: Adobe Illustrator 24.2.3, SVG Export Plug-In . SVG Version: 6.00 Build 0)  -->
<svg version="1.1" id="Layer_1" xmlns="http://www.w3.org/2000/svg" xmlns:xlink="http://www.w3.org/1999/xlink" x="0px" y="0px"
	 viewBox="0 0 552.25 77.08" style="enable-background:new 0 0 552.25 77.08;" xml:space="preserve">
<style type="text/css">
	.st0{fill:#210E26;}
	.st1{fill:#A04E9E;}
	.st2{fill:#72297E;}
	.st3{fill:#FFFFFF;}
	.st4{fill:#FFFFFF;stroke:#FFFFFF;stroke-width:0.5;stroke-miterlimit:10;}
	.st5{fill:#FFFFFF;stroke:#FFFFFF;stroke-miterlimit:10;}
</style>
<path class="st0" d="M164.81,75.17H11.04C4.94,75.17,0,70.23,0,64.13V11.04C0,4.94,4.94,0,11.04,0h153.77
	c6.1,0,11.04,4.94,11.04,11.04v53.08C175.85,70.23,170.91,75.17,164.81,75.17z"/>
<g>
	<path class="st1" d="M192.45,59.88h-3.56c-0.63,0-0.98-0.21-0.98-0.98V11.98c0-0.7,0.28-0.98,0.98-0.98h3.56V59.88z M193.78,55.9
		h12.08c11.73,0,19.62-9.5,19.62-20.46c0-11.03-7.89-20.46-19.62-20.46h-12.08V11h12.15c13.75,0,24.09,10.54,24.09,24.44
		s-10.33,24.44-24.09,24.44h-12.15V55.9z"/>
	<path class="st1" d="M267.65,40.95l-10.33-23.18h-0.07L238.96,58.9c-0.35,0.77-0.63,0.98-1.26,0.98h-3.28
		c-0.56,0-0.77-0.42-0.56-0.98l22.55-48.32c0.21-0.49,0.42-0.84,0.77-0.84h0.21c0.28,0,0.49,0.35,0.7,0.84l14.1,30.37H267.65z
		 M272.89,42.28l7.75,16.62c0.28,0.56,0,0.98-0.63,0.98h-3.21c-0.63,0-0.84-0.21-1.26-0.98l-5.73-12.64h-23.74l1.82-3.98H272.89z"/>
	<path class="st1" d="M309.2,60.78c-13.68-0.42-24.37-11.87-24.37-25.35c0-13.48,10.75-24.93,24.37-25.35v4.05
		c-11.17,0.42-19.76,10.68-19.76,21.3c0,10.61,8.66,20.88,19.76,21.3V60.78z"/>
	<path class="st2" d="M349.63,59.88h-3.56c-0.63,0-0.98-0.21-0.98-0.98V11.98c0-0.7,0.28-0.98,0.98-0.98h3.56V59.88z M350.95,55.9
		h12.08c11.73,0,19.62-9.5,19.62-20.46c0-11.03-7.89-20.46-19.62-20.46h-12.08V11h12.15c13.75,0,24.09,10.54,24.09,24.44
		s-10.33,24.44-24.09,24.44h-12.15V55.9z"/>
	<path class="st2" d="M397.87,11.98c0-0.77,0.21-0.98,0.98-0.98h2.58c0.77,0,0.98,0.28,0.98,0.98V58.9c0,0.77-0.21,0.98-0.98,0.98
		h-2.58c-0.77,0-0.98-0.21-0.98-0.98V11.98z"/>
	<path class="st2" d="M431.46,60.64c-6.49-0.21-12.36-1.96-17.32-5.38c-0.63-0.42-0.63-0.7-0.28-1.4l1.12-1.82
		c0.42-0.63,0.7-0.77,1.4-0.28c4.19,2.86,10.05,4.68,15.08,4.82V60.64z M431.67,14.35c-10.12,0.28-12.57,6.56-12.57,10.12
		c0,6.14,7.05,7.68,14.94,8.73c9.08,1.26,16.62,4.05,16.62,13.13c0,7.26-5.66,14.38-17.87,14.31v-4.05
		c6.84-0.14,13.41-2.65,13.41-10.12c0-6.07-5.38-8.1-14.94-9.5c-7.61-1.05-16.62-3.28-16.62-12.36c0-5.03,3.84-14.24,17.04-14.38
		V14.35z M432.99,10.23c6.77,0.21,11.45,2.3,16.34,5.31c0.63,0.42,0.56,0.77,0.28,1.4l-1.05,1.75c-0.35,0.63-0.7,0.84-1.4,0.42
		c-4.26-2.86-9.08-4.75-14.17-4.82V10.23z"/>
	<path class="st2" d="M465.95,59.88h-3.56c-0.7,0-0.98-0.21-0.98-0.98V11.98c0-0.7,0.28-0.98,0.98-0.98h3.56V59.88z M467.35,11
		h26.04c0.63,0,0.91,0.28,0.91,0.98v2.09c0,0.7-0.28,0.98-0.91,0.98h-26.04V11z M467.35,33.2h24.79c0.7,0,0.91,0.21,0.91,0.91v2.09
		c0,0.77-0.21,0.98-0.91,0.98h-24.79V33.2z M467.35,55.9h26.04c0.7,0,0.91,0.21,0.91,0.91v2.09c0,0.77-0.21,0.98-0.91,0.98h-26.04
		V55.9z"/>
	<path class="st2" d="M526.63,60.78c-13.69-0.42-24.37-11.87-24.37-25.35c0-13.48,10.75-24.93,24.37-25.35v4.05
		c-11.17,0.42-19.76,10.68-19.76,21.3c0,10.61,8.66,20.88,19.76,21.3V60.78z M527.95,56.73c11.17-0.49,19.69-10.68,19.69-21.3
		c0-10.61-8.52-20.74-19.69-21.3v-4.05c13.54,0.42,24.3,11.87,24.3,25.35c0,13.48-10.68,24.93-24.3,25.35V56.73z"/>
	<path class="st1" d="M309.2,54.96c-7.35-0.32-13.09-9.14-13.09-19.53c0-10.38,5.78-19.2,13.09-19.53v3.12
		c-6,0.32-10.23,8.23-10.23,16.41c0,8.18,4.27,16.08,10.23,16.41V54.96z"/>
</g>
<path class="st2" d="M310.52,51.84c6-0.38,10.17-8.23,10.17-16.41c0-8.18-4.17-15.98-10.17-16.41v-3.12
	c7.28,0.32,13.05,9.15,13.05,19.53c0,10.38-5.74,19.2-13.05,19.53V51.84z"/>
<path class="st2" d="M310.52,56.73c11.17-0.49,19.69-10.68,19.69-21.3c0-10.61-8.52-20.74-19.69-21.3v-4.05
	c13.55,0.42,24.3,11.87,24.3,25.35c0,13.48-10.68,24.93-24.3,25.35V56.73z"/>
<g>
	<path class="st3" d="M152.21,34.24v-8.28h-15.14v8.28L152.21,34.24L152.21,34.24z M138.27,27.08h12.76v6.05h-12.76V27.08z"/>
	<rect x="139.54" y="28.26" class="st4" width="10.22" height="1.12"/>
	<rect x="139.54" y="30.5" class="st4" width="10.22" height="1.12"/>
	<path class="st5" d="M156.58,21.58h-22.73c-1.72,0-3.12,1.32-3.12,2.93c0,0,0,24.81,0,24.81c0,1.62,1.4,2.93,3.12,2.93h1.82v3.34
		h4.43v-3.34h16.48L156.58,21.58z M155.39,46.39h-20.95V22.7h20.95V46.39z M133.26,22.79v23.66c-0.49,0.09-0.94,0.28-1.33,0.58
		V24.52C131.93,23.71,132.49,23.03,133.26,22.79z M133.85,51.14c-1.06,0-1.93-0.81-1.93-1.81c0-0.49,0.2-0.94,0.56-1.28
		c0.36-0.34,0.85-0.53,1.36-0.53h1.82v3.63H133.85z M136.86,54.49v-6.98h2.05v6.98L136.86,54.49L136.86,54.49z M155.39,51.14h-15.3
		v-3.63h15.3V51.14L155.39,51.14z"/>
</g>
<g>
	<path class="st3" d="M14.45,52.89V22.26h7.78c3.58,0,6.42,1.06,8.51,3.19c2.09,2.13,3.16,5.05,3.22,8.78v6.42
		c0,3.84-1.05,6.84-3.16,9c-2.11,2.16-5.07,3.24-8.88,3.24H14.45z M17.03,24.53v26.13h5.01c2.95,0,5.23-0.84,6.85-2.53
		c1.62-1.69,2.45-4.11,2.5-7.25v-6.42c0-3.14-0.79-5.58-2.37-7.32s-3.87-2.61-6.86-2.61H17.03z"/>
	<path class="st3" d="M61.4,40.9c0,3.96-0.93,7.01-2.8,9.17c-1.87,2.16-4.49,3.24-7.86,3.24c-3.34,0-5.96-1.08-7.86-3.24
		c-1.9-2.16-2.85-5.2-2.87-9.11v-6.67c0-3.94,0.94-7,2.83-9.18c1.89-2.18,4.51-3.27,7.85-3.27c3.39,0,6.02,1.09,7.89,3.28
		c1.87,2.19,2.81,5.27,2.81,9.23V40.9z M58.79,34.25c0-3.35-0.7-5.87-2.09-7.55c-1.39-1.68-3.4-2.52-6.01-2.52
		c-2.53,0-4.5,0.82-5.92,2.47c-1.42,1.65-2.15,4.11-2.18,7.39v6.86c0,3.37,0.72,5.89,2.15,7.58c1.44,1.69,3.43,2.54,5.99,2.54
		c2.63,0,4.63-0.84,6-2.52c1.37-1.68,2.05-4.21,2.05-7.59V34.25z"/>
	<path class="st3" d="M88.12,43.34c-0.24,3.44-1.24,5.96-2.99,7.56c-1.75,1.61-4.18,2.41-7.28,2.41c-3.19,0-5.71-1.12-7.55-3.36
		c-1.85-2.24-2.77-5.28-2.79-9.12v-6.65c0-3.86,0.94-6.88,2.82-9.07c1.88-2.19,4.46-3.28,7.72-3.28c3.08,0,5.47,0.82,7.17,2.46
		c1.69,1.64,2.66,4.16,2.9,7.55h-2.63c-0.24-2.78-0.95-4.76-2.12-5.95c-1.17-1.19-2.95-1.79-5.32-1.79c-2.5,0-4.44,0.86-5.83,2.59
		s-2.09,4.23-2.09,7.51v6.56c0,3.25,0.67,5.78,2.02,7.59c1.35,1.81,3.24,2.71,5.69,2.71c2.57,0,4.43-0.6,5.58-1.79
		c1.15-1.19,1.84-3.18,2.06-5.95H88.12z"/>
	<path class="st3" d="M110.09,45.36c0-1.71-0.53-3.06-1.58-4.04c-1.05-0.98-3.01-1.92-5.89-2.82c-2.87-0.9-4.98-1.9-6.33-3.01
		c-1.77-1.44-2.65-3.35-2.65-5.72c0-2.34,0.87-4.25,2.61-5.72c1.74-1.47,3.98-2.21,6.74-2.21c2.81,0,5.11,0.86,6.9,2.57
		s2.68,3.91,2.68,6.61h-2.61c0-2.06-0.62-3.73-1.87-5s-2.94-1.9-5.09-1.9c-2.09,0-3.73,0.52-4.93,1.57c-1.2,1.04-1.8,2.4-1.8,4.05
		c0,1.54,0.57,2.8,1.7,3.79c1.13,0.98,2.94,1.85,5.42,2.62c2.48,0.76,4.35,1.56,5.62,2.38c1.27,0.82,2.21,1.79,2.81,2.89
		c0.6,1.11,0.91,2.41,0.91,3.91c0,2.4-0.87,4.33-2.62,5.8c-1.75,1.47-4.06,2.2-6.93,2.2c-1.94,0-3.7-0.37-5.3-1.1
		s-2.84-1.79-3.74-3.18c-0.9-1.38-1.35-3.01-1.35-4.89h2.59c0,2.16,0.7,3.86,2.11,5.09s3.3,1.85,5.69,1.85
		c2.09,0,3.76-0.52,5.02-1.56C109.46,48.49,110.09,47.1,110.09,45.36z"/>
</g>
</svg>
