<svg xmlns="http://www.w3.org/2000/svg" viewBox="0 0 93.5 93.5"><defs><style>.cls-1{fill:none;stroke:#a04e9e;stroke-miterlimit:10;stroke-width:2px;}.cls-2{fill:#a04e9e;}.cls-3{fill:#72297e;}</style></defs><g id="Layer_9" data-name="Layer 9"><rect class="cls-1" x="40.36" y="7.85" width="14.28" height="14.28"/><rect class="cls-1" x="10.36" y="27.85" width="14.28" height="14.28"/><rect class="cls-1" x="70.36" y="27.85" width="14.28" height="14.28"/><rect class="cls-1" x="70.36" y="52.85" width="14.28" height="14.28"/><rect class="cls-1" x="10.36" y="52.85" width="14.28" height="14.28"/><rect class="cls-1" x="40.36" y="72.85" width="14.28" height="14.28"/><line class="cls-1" x1="47.97" y1="22.13" x2="47.97" y2="32"/><line class="cls-1" x1="54.64" y1="14.99" x2="78.57" y2="27.85"/><line class="cls-1" x1="78.13" y1="52.85" x2="78.13" y2="42.6"/><line class="cls-1" x1="40.12" y1="79.99" x2="17.5" y2="67.16"/><line class="cls-1" x1="24.64" y1="59.99" x2="34.55" y2="55.16"/><line class="cls-1" x1="70.36" y1="59.99" x2="60.46" y2="55.08"/><line class="cls-1" x1="16.64" y1="27.85" x2="40.12" y2="15.66"/><path class="cls-2" d="M48,63.39a16.33,16.33,0,0,1,0-32.63v2.61c-7.2.26-12.73,6.87-12.73,13.71S40.82,60.52,48,60.79Z"/><path class="cls-2" d="M48,59.65c-4.74-.21-8.43-5.89-8.43-12.57S43.26,34.71,48,34.5v2c-3.87.21-6.59,5.3-6.59,10.57S44.13,57.43,48,57.64Z"/><path class="cls-3" d="M48.82,57.64c3.86-.24,6.55-5.3,6.55-10.56s-2.69-10.29-6.55-10.57v-2c4.68.21,8.4,5.89,8.4,12.58s-3.69,12.36-8.4,12.57Z"/><path class="cls-3" d="M48.82,60.79C56,60.47,61.5,53.91,61.5,47.08S56,33.72,48.82,33.37V30.76a16.33,16.33,0,0,1,0,32.63Z"/></g></svg>