<svg xmlns="http://www.w3.org/2000/svg" viewBox="0 0 93.5 93.5"><defs><style>.cls-1{fill:#a04e9e;}.cls-2{fill:#72297e;}</style></defs><g id="ecosystem"><path class="cls-1" d="M78.55,48.49a1.8,1.8,0,0,1-1.67-1.17,1.78,1.78,0,1,1,1.67,1.17Z"/><path class="cls-1" d="M78.8,14.64A45.38,45.38,0,0,0,21.41,9.06a6.18,6.18,0,0,0-9.72,5.07A6,6,0,0,0,12.42,17,45.39,45.39,0,0,0,7.77,70,7.74,7.74,0,0,0,17.85,81.72a45.37,45.37,0,0,0,61-67.08ZM17.87,11.49a2.64,2.64,0,1,1-2.63,2.64A2.64,2.64,0,0,1,17.87,11.49ZM13.11,79.8a4.2,4.2,0,1,1,4.2-4.2A4.2,4.2,0,0,1,13.11,79.8Zm33.61,8.75A41.81,41.81,0,0,1,20.09,79,7.75,7.75,0,0,0,10.83,68.2a41.81,41.81,0,0,1,4.09-48.65,6.18,6.18,0,0,0,8.7-7.7,41.83,41.83,0,1,1,23.1,76.7Z"/><path class="cls-1" d="M78.14,52.13A1.77,1.77,0,0,0,76,53.46,30.23,30.23,0,0,1,55.13,75.58a6.18,6.18,0,0,0-11.3,1.06,30.06,30.06,0,1,1,17.5-56.19,7.29,7.29,0,0,0-.72,3.16A7.38,7.38,0,0,0,71.7,30,29.68,29.68,0,0,1,76,40a1.75,1.75,0,0,0,1.72,1.38,1.87,1.87,0,0,0,.4,0,1.77,1.77,0,0,0,1.33-2.12,33.14,33.14,0,0,0-5.2-11.74,7.38,7.38,0,0,0-10.66-9.82A33.6,33.6,0,1,0,43.75,80.19a6.18,6.18,0,0,0,12.12-1.13,33.64,33.64,0,0,0,23.6-24.81,1.76,1.76,0,0,0-1.33-2.12Zm-6.3-28.52A3.84,3.84,0,1,1,68,19.77,3.85,3.85,0,0,1,71.84,23.61ZM49.71,81.18a2.64,2.64,0,1,1,2.63-2.63A2.64,2.64,0,0,1,49.71,81.18Z"/><path class="cls-1" d="M46.22,66.78a20,20,0,0,1,0-40.06v3.2c-8.83.33-15.62,8.44-15.62,16.83s6.85,16.5,15.62,16.83Z"/><path class="cls-1" d="M46.22,62.19C40.41,61.93,35.88,55,35.88,46.75s4.56-15.18,10.34-15.44v2.47c-4.74.26-8.08,6.51-8.08,13s3.37,12.71,8.08,13Z"/><path class="cls-2" d="M47.27,59.72c4.74-.3,8-6.51,8-13s-3.3-12.63-8-13V31.31c5.75.26,10.32,7.23,10.32,15.44S53.05,61.93,47.27,62.19Z"/><path class="cls-2" d="M47.27,63.58c8.83-.38,15.57-8.44,15.57-16.83S56.1,30.36,47.27,29.92v-3.2a20,20,0,0,1,0,40.06Z"/></g></svg>