<svg xmlns="http://www.w3.org/2000/svg" viewBox="0 0 93.5 93.5"><defs><style>.cls-1{fill:#a04e9e;}</style></defs><g id="faucet"><path class="cls-1" d="M78,42.67H61l4.24,15.8H78V42.67ZM60.35,40.3H78V36.78a2.11,2.11,0,0,1,.62-1.49.39.39,0,0,1,.1-.08,2.09,2.09,0,0,1,1.4-.53H89a2.14,2.14,0,0,1,1.49.61h0a2.11,2.11,0,0,1,.62,1.49V64.94a2.11,2.11,0,0,1-.62,1.49l-.1.09a2.09,2.09,0,0,1-1.4.53H80.09a2.11,2.11,0,0,1-1.49-.62h0A2.11,2.11,0,0,1,78,64.94v-4.1H65.43a15,15,0,0,1-8.25,10.39,21.1,21.1,0,0,1-9.52,2.15,22.31,22.31,0,0,1-9.57-2.12,15.54,15.54,0,0,1-8.8-10.43h-.66a7.27,7.27,0,0,0-4.41,1.36,5.09,5.09,0,0,0-1.67,3.41v6a1.19,1.19,0,0,1-1.19,1.19H3.19A1.18,1.18,0,0,1,2,71.6v-13H2a1.36,1.36,0,0,1,0-.2c.87-5.1,2.79-9.26,5.89-12.34s7.32-5,12.84-5.76a1.09,1.09,0,0,1,.26,0H34.85l2.4-8.18a1.21,1.21,0,0,1,1.14-.85h4v-9h-9.7a5.15,5.15,0,0,1,0-10.3H61.43a5.15,5.15,0,0,1,0,10.3H52.28v9H57a1.18,1.18,0,0,1,1.16.95l2.17,8.09Zm-10.45-9v-9H44.73v9ZM29.53,58.47l4.63-15.8H21.05c-5,.67-8.74,2.4-11.46,5.09s-4.42,6.39-5.21,11v11.7H20.17V65.54a1.23,1.23,0,0,1,0-.2,7.31,7.31,0,0,1,2.52-5,9.5,9.5,0,0,1,5.88-1.9h.94Zm2,1.58a13.18,13.18,0,0,0,7.57,9.09A20.19,20.19,0,0,0,47.66,71a19.07,19.07,0,0,0,8.46-1.9,12.82,12.82,0,0,0,7.07-9.08l-7.08-26.4H39.28l-2.4,8.18-5.3,18.09a.93.93,0,0,1,0,.13Zm29.9-45.67H32.66a2.8,2.8,0,0,0-2.78,2.78,2.8,2.8,0,0,0,.82,2,2.77,2.77,0,0,0,2,.82H61.43a2.81,2.81,0,0,0,2-.82,2.78,2.78,0,0,0-2-4.74ZM88.75,37.05H80.36V64.68h8.39V37.05Z"/></g></svg>