<svg xmlns="http://www.w3.org/2000/svg" viewBox="0 0 93.5 93.5"><defs><style>.cls-1{fill:none;}.cls-2{fill:#a04e9e;}.cls-3{fill:#72297e;}</style></defs><g id="spacecamp"><path class="cls-1" d="M38.41,59.51q-3-.13-5.73-.48a24.64,24.64,0,0,0,1.74,1.8c1.72.09,3.49.15,5.31.16A17.16,17.16,0,0,1,38.41,59.51Z"/><path class="cls-1" d="M57.41,58.13a18.56,18.56,0,0,1-1.24,1.73c2.14-.31,4.22-.68,6.21-1.1A21,21,0,0,0,64,56.53,66.25,66.25,0,0,1,57.41,58.13Z"/><path class="cls-1" d="M53.18,58.83c-2.16.29-4.39.51-6.68.64-1.34.07-2.65.1-4,.11a8.12,8.12,0,0,0,2.39,1.31l1.37-.06h.08c1.52-.08,3-.19,4.48-.33A9.12,9.12,0,0,0,53.18,58.83Z"/><path class="cls-2" d="M46.79,70.07v-4a18.76,18.76,0,0,1-8.86-2.65c-2.61-.07-5.21-.23-7.61-.44A24.48,24.48,0,0,0,46.79,70.07Z"/><path class="cls-2" d="M30.55,56.13a21.22,21.22,0,0,1-3.21-11c0-10.44,8.45-20.55,19.45-21v-4A25,25,0,0,0,24.72,54.69l.43.17A41.74,41.74,0,0,0,30.55,56.13Z"/><path class="cls-2" d="M36.72,45.11c0-8,4.16-15.83,10.07-16.15V25.89c-7.2.32-12.88,9-12.88,19.22A25.17,25.17,0,0,0,36.7,56.86c1.13.08,2.28.14,3.47.17A21.33,21.33,0,0,1,36.72,45.11Z"/><path class="cls-2" d="M46.27,63.37c-1,.05-2,.08-3,.1a9.7,9.7,0,0,0,3.52.87v-1l-.44,0Z"/><path class="cls-3" d="M61,45.11c0-10.22-5.69-18.9-12.85-19.22V29c5.91.42,10,8.1,10,16.15A22,22,0,0,1,55.4,55.92c1.22-.2,2.39-.44,3.53-.69A25.66,25.66,0,0,0,61,45.11Z"/><path class="cls-3" d="M48.1,64.34A9.83,9.83,0,0,0,53,62.73c-1.65.21-3.29.38-4.88.51Z"/><path class="cls-3" d="M48.1,66.08v4A24.54,24.54,0,0,0,67,60.2c-2.27.55-4.88,1.09-7.63,1.58A19.34,19.34,0,0,1,48.1,66.08Z"/><path class="cls-3" d="M71.34,50.88A25,25,0,0,0,48.1,20.16v4c11,.55,19.38,10.52,19.38,21a20.73,20.73,0,0,1-1.75,8.22c.81-.28,1.6-.58,2.34-.89C68.57,52.22,70,51.64,71.34,50.88Z"/><path class="cls-3" d="M21.9,53.51l-.37-.19c-2-1.28-4.49-3.39-4.42-4.91s1.86-3.54,3.94-5c.27-1.49.24-1.8.53-3.15-4.17,2.34-7,5.3-7,8.33-.1,3.77,3.6,6.78,9.69,8.71.64.2,1.33.39,2,.57a24.51,24.51,0,0,1-1.58-3.16C23.9,54.37,22.55,53.78,21.9,53.51Z"/><path class="cls-3" d="M38.41,59.51a19.11,19.11,0,0,1-1.71-2.65,61.4,61.4,0,0,1-6.15-.73A23.24,23.24,0,0,0,32.68,59Q35.41,59.38,38.41,59.51Z"/><path class="cls-3" d="M64,56.53a21.79,21.79,0,0,0,1.7-3.2,59.69,59.69,0,0,1-6.8,1.9,19.37,19.37,0,0,1-1.52,2.9A66.25,66.25,0,0,0,64,56.53Z"/><path class="cls-3" d="M79,45c.09-3-2.3-5.53-6.38-7.46a23.58,23.58,0,0,1,.69,3.32c2,1.25,3.19,2.72,3.12,4.27S75,48.61,72.75,50c-.45.3-.93.58-1.41.84a24.18,24.18,0,0,1-1,3.29C75.68,51.65,79,48.44,79,45Z"/><path class="cls-3" d="M42.55,59.58c1.3,0,2.61,0,4-.11,2.29-.13,4.52-.35,6.68-.64a13.46,13.46,0,0,0,2.22-2.91,83.19,83.19,0,0,1-8.86,1c-2.19.12-4.32.15-6.37.1A11.43,11.43,0,0,0,42.55,59.58Z"/><path class="cls-3" d="M30.55,56.13a41.74,41.74,0,0,1-5.4-1.27l-.43-.17a24.51,24.51,0,0,0,1.58,3.16A51.23,51.23,0,0,0,32.68,59,23.24,23.24,0,0,1,30.55,56.13Z"/><path class="cls-3" d="M42.55,59.58A11.43,11.43,0,0,1,40.17,57c-1.19,0-2.34-.09-3.47-.17a19.11,19.11,0,0,0,1.71,2.65C39.76,59.57,41.14,59.59,42.55,59.58Z"/><path class="cls-3" d="M57.41,58.13a19.37,19.37,0,0,0,1.52-2.9c-1.14.25-2.31.49-3.53.69a13.46,13.46,0,0,1-2.22,2.91C54.63,58.63,56,58.39,57.41,58.13Z"/><path class="cls-3" d="M68.92,54.8l1.39-.63a24.18,24.18,0,0,0,1-3.29c-1.39.76-2.77,1.34-3.27,1.56-.74.31-1.53.61-2.34.89a21.79,21.79,0,0,1-1.7,3.2A50.47,50.47,0,0,0,68.92,54.8Z"/><path class="cls-3" d="M17.55,58c-7-2.16-11.22-5.35-11.12-9S10.93,41.67,18,38.72c1.44-.6,2.87-1.2,4.47-1.72.51-1.12.64-1.82,1.17-3a46.18,46.18,0,0,0-6.4,2.44c-8.11,3.44-13.2,8-13.31,12.74S8.7,58,16.63,60.48a88.54,88.54,0,0,0,8.85,2c1.46.2,3.1.38,4.84.53a23.83,23.83,0,0,1-2.43-2.78A61.29,61.29,0,0,1,17.55,58Z"/><path class="cls-3" d="M76.92,33.07a59.22,59.22,0,0,0-7-1.73,23.5,23.5,0,0,1,1.57,3c1.61.35,3.1.76,4.51,1.16,7,2.17,11.21,5.36,11.12,9s-4.54,7.27-11.63,10.22a61.37,61.37,0,0,1-6.55,2.32,25,25,0,0,1-2,3.09l.35-.08a87,87,0,0,0,8.92-3c8.1-3.44,13.19-8,13.3-12.74S84.89,35.59,76.92,33.07Z"/><path class="cls-3" d="M62.38,58.76c-2,.42-4.07.79-6.21,1.1A13.84,13.84,0,0,1,53,62.73c2.13-.27,4.27-.59,6.34-.95A21.84,21.84,0,0,0,62.38,58.76Z"/><path class="cls-3" d="M50.87,60.49c-1.47.14-3,.25-4.48.33h-.08l-1.37.06a7.16,7.16,0,0,0,1.85.38v2.06l1.31-.09v-2A7.22,7.22,0,0,0,50.87,60.49Z"/><path class="cls-3" d="M34.42,60.83a20.71,20.71,0,0,0,3.51,2.6c1.79.06,3.59.07,5.34,0A12,12,0,0,1,39.73,61C37.91,61,36.14,60.92,34.42,60.83Z"/><path class="cls-3" d="M27.89,60.21A23.83,23.83,0,0,0,30.32,63c2.4.21,5,.37,7.61.44a20.71,20.71,0,0,1-3.51-2.6Q31,60.64,27.89,60.21Z"/><path class="cls-3" d="M44.94,60.89c-1.77.07-3.51.11-5.21.1a12,12,0,0,0,3.54,2.48c1,0,2,0,3-.1h.08l.44,0V61.27A7.16,7.16,0,0,1,44.94,60.89Z"/><path class="cls-3" d="M56.17,59.86c-1.73.25-3.49.46-5.3.63a7.22,7.22,0,0,1-2.77.78v2c1.59-.13,3.23-.3,4.88-.51A13.84,13.84,0,0,0,56.17,59.86Z"/><path class="cls-3" d="M62.38,58.76a21.84,21.84,0,0,1-3.06,3c2.75-.49,5.36-1,7.63-1.58a25,25,0,0,0,2-3.09C66.88,57.72,64.69,58.28,62.38,58.76Z"/><polygon class="cls-2" points="78.24 22.77 75.66 25.89 78.24 29 80.82 25.89 78.24 22.77"/><polygon class="cls-2" points="24.98 69.64 22.4 72.75 24.98 75.87 27.57 72.75 24.98 69.64"/></g></svg>