<svg xmlns="http://www.w3.org/2000/svg" viewBox="0 0 93.5 93.5"><defs><style>.cls-1{fill:#a04e9e;}.cls-2{fill:#72297e;}</style></defs><g id="planet"><path class="cls-1" d="M73.58,35.91l3.07-8.19A35.69,35.69,0,0,0,47.73,11.21v5.67C59.65,17.46,69.44,25.6,73.58,35.91Z"/><path class="cls-1" d="M75.58,44.2c.07.82.11,1.64.11,2.47,0,14.84-12.09,29.11-28,29.79v5.67A35.67,35.67,0,0,0,82.24,46.67a35,35,0,0,0-1.34-9.53Z"/><path class="cls-1" d="M62.18,46.67a33,33,0,0,1-.56,6.07l4.64-6.33C66.17,32,58,19.8,47.73,19.35v4.36C56.25,24.32,62.18,35.23,62.18,46.67Z"/><path class="cls-1" d="M56.32,64.82a15.06,15.06,0,0,1-3.1,2.85L50.15,70.5l-2.42,1.62V74c7.8-.34,14.33-7.38,17.11-17Z"/><path class="cls-1" d="M38.74,71.69l4.31-2.63c-7-2.43-11.73-12.26-11.73-22.39,0-11.44,6-22.5,14.53-23V19.35c-10.39.45-18.59,12.79-18.59,27.32C27.26,57.67,31.94,67.41,38.74,71.69Z"/><path class="cls-2" d="M45.06,73.92l.79.07v-.6Z"/><path class="cls-1" d="M35.59,80.3a35.75,35.75,0,0,0,10.26,1.83V76.46A26.29,26.29,0,0,1,42,76Z"/><path class="cls-1" d="M34.67,73.57a30.88,30.88,0,0,1-16.88-26.9c0-14.85,12.2-29.21,28.06-29.79V11.21a35.41,35.41,0,0,0-18.59,65Z"/><path class="cls-2" d="M34.32,76.1c7.34-3.31,16-9.39,24.23-17.44S73,42.09,76.46,34.76c3.7-7.81,4.26-14.36.78-17.83-2.75-2.84-7.54-3.08-13.43-1.28a36.6,36.6,0,0,1,3.84,2.44c3.18-.6,5.74-.28,7.15,1.2s1.88,4.44,1,7.74a38.31,38.31,0,0,1-2.39,6.31c-3.32,6.94-9.31,15.15-17.2,23S39.93,70,32.9,73.1c-.86.36-3.42,1.22-4.51,1.61a3.41,3.41,0,0,1-.55.14c-3.22.59-7.68.81-9.06-.64s-1.72-4-1.05-7.14a35.71,35.71,0,0,1-2.37-3.89C13.42,69,13.59,73.75,16.41,76.57,19.88,80.12,26.43,79.65,34.32,76.1Z"/><path class="cls-2" d="M87.11,7.14c-4.34-4.65-12.94-4-23.28.63a85.23,85.23,0,0,0-8.61,4.54,35.42,35.42,0,0,1,4.45,1.41c1.93-1.08,3.8-2,5.58-2.87,9-4.1,16.26-4.89,19.65-1.42S87.26,20.08,83,29c-4.41,9.39-12.54,20.51-23.27,31l-.08.07C49,70.5,37.79,78.39,28.33,82.65c-9,4.1-16.26,4.89-19.65,1.42S6.24,73.42,10.5,64.5c.86-1.8,1.88-3.69,3-5.57a34.2,34.2,0,0,1-1.27-4.29,67.48,67.48,0,0,0-4.63,8.44C2.76,73.34,2,81.94,6.39,86.44s13.1,3.94,23.36-.71c2.76-1.27,7.77-4.11,10.69-5.92A165.33,165.33,0,0,0,62,62.45l.08-.08a163.26,163.26,0,0,0,17.79-21.3,105.5,105.5,0,0,0,6-10.57C90.74,20.24,91.53,11.64,87.11,7.14Z"/></g></svg>