<svg id="bulb" xmlns="http://www.w3.org/2000/svg" viewBox="0 0 93.5 93.5"><defs><style>.cls-1{fill:#a04e9e;}</style></defs><path class="cls-1" d="M47.75,1.43A1.44,1.44,0,0,0,46.3,2.87v7.86a1.45,1.45,0,0,0,2.9,0V2.87A1.44,1.44,0,0,0,47.75,1.43Z"/><path class="cls-1" d="M31.28,14.56l-3.76-6.9A1.45,1.45,0,0,0,25,9l3.76,6.9a1.45,1.45,0,0,0,2.54-1.38Z"/><path class="cls-1" d="M17.37,26.49l-6.6-4.26A1.45,1.45,0,0,0,9.2,24.66l6.6,4.26a1.45,1.45,0,0,0,.79.23,1.43,1.43,0,0,0,1.21-.66A1.44,1.44,0,0,0,17.37,26.49Z"/><path class="cls-1" d="M69.94,7.08a1.45,1.45,0,0,0-2,.58l-3.76,6.9a1.45,1.45,0,1,0,2.54,1.38L70.52,9A1.45,1.45,0,0,0,69.94,7.08Z"/><path class="cls-1" d="M86.73,22.66a1.45,1.45,0,0,0-2-.43l-6.6,4.26a1.44,1.44,0,0,0-.43,2,1.43,1.43,0,0,0,1.21.66,1.45,1.45,0,0,0,.79-.23l6.6-4.26A1.45,1.45,0,0,0,86.73,22.66Z"/><path class="cls-1" d="M65.74,22.66A25.1,25.1,0,0,0,48.1,15.14,25.37,25.37,0,0,0,29.49,23a1.45,1.45,0,1,0,2.09,2A22.35,22.35,0,0,1,65.86,53.59l-.07.11-.18.3L63.7,57.18a1.44,1.44,0,0,0,.51,2,1.4,1.4,0,0,0,.73.21,1.46,1.46,0,0,0,1.25-.71c.58-1,1.21-2,1.9-3.17l.14-.24a25.29,25.29,0,0,0-2.49-32.59Z"/><path class="cls-1" d="M62.78,61.64a1.44,1.44,0,0,0-1.94.63A25.09,25.09,0,0,0,58.33,69H37.17C36.31,64.68,34.09,61,30,54.13l-.26-.43a.61.61,0,0,0-.07-.1,22.23,22.23,0,0,1-1.3-24.23,1.45,1.45,0,0,0-2.51-1.45,25.14,25.14,0,0,0,1.44,27.33l.22.37c4.14,6.88,6.15,10.24,6.88,14.2a4.84,4.84,0,0,0-2.21,4.05,4.78,4.78,0,0,0,1.39,3.37,4.79,4.79,0,0,0-1.39,3.38A4.84,4.84,0,0,0,37,85.44h2a9.08,9.08,0,0,0,17.48,0h2a4.84,4.84,0,0,0,4.82-4.82A4.79,4.79,0,0,0,62,77.24a4.8,4.8,0,0,0-.82-7.42,21.61,21.61,0,0,1,2.28-6.23A1.46,1.46,0,0,0,62.78,61.64Zm-15,27.54a6.22,6.22,0,0,1-5.69-3.74H53.44A6.22,6.22,0,0,1,47.75,89.18ZM54.5,78.69h4a1.93,1.93,0,1,1,0,3.85H37a1.93,1.93,0,1,1,0-3.85h11.8a1.45,1.45,0,1,0,0-2.9H37A1.92,1.92,0,0,1,36.43,72l.23,0,.07,0h22l.07,0,.23,0a1.92,1.92,0,0,1-.55,3.77h-4a1.45,1.45,0,1,0,0,2.9Z"/></svg>