<svg xmlns="http://www.w3.org/2000/svg" viewBox="0 0 93.5 93.5"><defs><style>.cls-1{fill:#a04e9e;}</style></defs><g id="join_a_network" data-name="join a network"><path class="cls-1" d="M48.36,89.25A2.78,2.78,0,0,1,47,88.89L12,68.94a2.61,2.61,0,0,1-1.32-2.24V26.8A2.61,2.61,0,0,1,12,24.56L47,4.61a2.77,2.77,0,0,1,2.73,0l35,20A2.59,2.59,0,0,1,86,26.8V66.7a2.59,2.59,0,0,1-1.32,2.24l-34.95,20A2.74,2.74,0,0,1,48.36,89.25ZM13.66,66.61l34.7,19.81L83.05,66.61V26.89L48.36,7.08,13.66,26.89ZM72.55,60.2h0Z"/></g></svg>