<svg xmlns="http://www.w3.org/2000/svg" viewBox="0 0 93.5 93.5"><defs><style>.cls-1{fill:#a04e9e;stroke:#a04e9e;stroke-miterlimit:10;}</style></defs><g id="transaction"><path class="cls-1" d="M6,58.78H49.27L39.9,69.63a.74.74,0,0,0,0,1l.36.42a.53.53,0,0,0,.82,0L51.4,59.06a.75.75,0,0,0,0-1L40.62,45.62a.54.54,0,0,0-.83,0l-.27.32a.75.75,0,0,0,0,1L48.26,57H6a.64.64,0,0,0-.59.68v.41A.64.64,0,0,0,6,58.78Z"/><path class="cls-1" d="M88.16,33H44.84l9.38-10.85a.75.75,0,0,0,0-1l-.36-.41a.53.53,0,0,0-.83,0L42.71,32.74a.74.74,0,0,0,0,.95L53.5,46.17a.52.52,0,0,0,.82,0l.28-.32a.74.74,0,0,0,0-1L45.86,34.78h42.3a.63.63,0,0,0,.58-.67V33.7A.63.63,0,0,0,88.16,33Z"/></g></svg>