<?xml version="1.0" encoding="utf-8"?>
<!-- Generator: Adobe Illustrator 24.2.3, SVG Export Plug-In . SVG Version: 6.00 Build 0)  -->
<svg version="1.1" xmlns="http://www.w3.org/2000/svg" xmlns:xlink="http://www.w3.org/1999/xlink" x="0px" y="0px"
	 viewBox="0 0 93.5 93.5" style="enable-background:new 0 0 93.5 93.5;" xml:space="preserve">
<style type="text/css">
	.st0{display:none;}
	.st1{display:inline;}
	.st2{fill:#A04E9E;}
	.st3{fill:#72297E;}
	.st4{fill:#FFFFFF;}
	.st5{display:inline;fill:#72297E;}
	.st6{display:inline;fill:#A04E9E;}
</style>
<g id="satelite" class="st0">
	<g class="st1">
		<path class="st2" d="M42.4,27.1c1.2-1.2,1.2-3.2,0-4.4L20.6,0.9c-1.2-1.2-3.2-1.2-4.4,0L0.9,16.2c-1.2,1.2-1.2,3.2,0,4.4
			l21.8,21.8c1.2,1.2,3.2,1.2,4.4,0l3.3-3.3l2.2,2.2l-4.3,4.3c-1.8,1.8-1.8,4.7-0.1,6.5c-4.1-0.6-8.4,0.5-11.7,3.1
			c-1.4,1.1-1.6,3-0.5,4.4c0.1,0.1,0.2,0.2,0.2,0.3l5.4,5.4L17.9,69c-1.5,0.1-2.9,0.7-4,1.8c-2.4,2.4-2.4,6.4,0.1,8.8
			c2.4,2.4,6.3,2.4,8.7,0c1-1.1,1.7-2.5,1.8-4l3.7-3.7l5.4,5.4c0.6,0.6,1.4,0.9,2.2,0.9H36c0.9-0.1,1.7-0.5,2.3-1.2
			c2.6-3.3,3.7-7.5,3.1-11.7c1.8,1.8,4.8,1.8,6.6,0l4.3-4.3l2.2,2.2l-3.3,3.3c-1.2,1.2-1.2,3.2,0,4.4l21.8,21.8
			c1.2,1.2,3.2,1.2,4.4,0l15.3-15.3c1.2-1.2,1.2-3.2,0-4.4L70.8,51.1c-1.2-1.2-3.2-1.2-4.4,0l-3.3,3.3L61,52.2l4.3-4.3
			c1.8-1.8,1.8-4.7,0-6.6l2.8-2.8c1.8-1.8,1.8-4.8,0-6.6l-6.5-6.5c-1.8-1.8-4.8-1.8-6.6,0l-2.8,2.8c-1.9-1.7-4.7-1.7-6.6,0l-4.3,4.3
			l-2.2-2.2L42.4,27.1z M32.5,17.3L17.3,32.5L10.8,26L26,10.8L32.5,17.3z M18.4,3.1l5.4,5.4L8.6,23.8l-5.4-5.4L18.4,3.1z M24.9,40.2
			l-5.4-5.4l15.3-15.3l5.4,5.4L24.9,40.2z M20.5,77.3c-1.2,1.2-3.1,1.2-4.3,0c-1.2-1.2-1.2-3.1,0-4.3c1.2-1.2,3.1-1.2,4.3,0
			C21.7,74.1,21.7,76.1,20.5,77.3z M23.7,72c-0.5-0.9-1.3-1.7-2.2-2.2l2.3-2.3l2.2,2.2L23.7,72z M35.8,75L18.4,57.7
			c5.4-4.2,13.2-3.1,17.4,2.3C39.2,64.4,39.2,70.6,35.8,75L35.8,75z M61,76.2L76.2,61l6.5,6.5L67.5,82.7L61,76.2z M75.1,90.4
			l-5.4-5.4l15.3-15.3l5.4,5.4L75.1,90.4z M68.6,53.3l5.4,5.4L58.7,74l-5.4-5.4L68.6,53.3z M60.9,56.6l-4.3,4.3l-2.2-2.2l4.3-4.3
			L60.9,56.6z M57.2,27.6c0.6-0.6,1.6-0.6,2.2,0c0,0,0,0,0,0l6.5,6.5c0.6,0.6,0.6,1.6,0,2.2l-2.8,2.8l-8.7-8.7L57.2,27.6z
			 M47.8,30.4c0.6-0.6,1.6-0.6,2.2,0l13.1,13.1c0.3,0.3,0.5,0.7,0.5,1.1c0,0.4-0.2,0.8-0.5,1.1L45.7,63.1c-0.6,0.6-1.6,0.6-2.2,0
			L30.4,50c-0.3-0.3-0.5-0.7-0.5-1.1c0-0.4,0.2-0.8,0.5-1.1L47.8,30.4z M39.1,34.8l-4.3,4.3l-2.2-2.2l4.3-4.3L39.1,34.8z"/>
	</g>
</g>
<g id="docs" class="st0">
	<g class="st1">
		<g>
			<path class="st2" d="M86,23.6L63.8,1.4C63.4,1,63,0.8,62.5,0.8H20c-5,0-9.1,4.1-9.1,9.1v73.6c0,5,4.1,9.1,9.1,9.1h57.5
				c5,0,9.1-4.1,9.1-9.1V24.9C86.5,24.4,86.3,23.9,86,23.6z M64.3,7.2L80.2,23H69.7c-1.4,0-2.8-0.6-3.8-1.6c-1-1-1.6-2.4-1.6-3.8
				V7.2z M82.8,83.5c0,3-2.4,5.4-5.4,5.4H20c-3,0-5.4-2.4-5.4-5.4V10c0-3,2.4-5.4,5.4-5.4h40.6v13.1c0,2.4,0.9,4.7,2.7,6.4
				c1.7,1.7,4,2.7,6.4,2.7h13.1L82.8,83.5L82.8,83.5z"/>
		</g>
	</g>
	<g class="st1">
		<g>
			<path class="st2" d="M52.1,63.9h-0.8c-1,0-1.9,0.8-1.9,1.9s0.8,1.9,1.9,1.9h0.8c1,0,1.9-0.8,1.9-1.9S53.2,63.9,52.1,63.9z"/>
		</g>
	</g>
	<g class="st1">
		<g>
			<path class="st2" d="M45.2,63.9H27c-1,0-1.9,0.8-1.9,1.9s0.8,1.9,1.9,1.9h18.2c1,0,1.9-0.8,1.9-1.9S46.3,63.9,45.2,63.9z"/>
		</g>
	</g>
	<g class="st1">
		<g>
			<path class="st2" d="M70.4,55.3H27c-1,0-1.9,0.8-1.9,1.9s0.8,1.9,1.9,1.9h43.3c1,0,1.9-0.8,1.9-1.9
				C72.3,56.1,71.4,55.3,70.4,55.3z"/>
		</g>
	</g>
	<g class="st1">
		<g>
			<path class="st2" d="M70.4,46.7H27c-1,0-1.9,0.8-1.9,1.9s0.8,1.9,1.9,1.9h43.3c1,0,1.9-0.8,1.9-1.9
				C72.3,47.6,71.4,46.7,70.4,46.7z"/>
		</g>
	</g>
	<g class="st1">
		<g>
			<path class="st2" d="M70.4,38.2H27c-1,0-1.9,0.8-1.9,1.9c0,1,0.8,1.9,1.9,1.9h43.3c1,0,1.9-0.8,1.9-1.9S71.4,38.2,70.4,38.2z"/>
		</g>
	</g>
</g>
<g id="planet" class="st0">
	<g class="st1">
		<g>
			<path class="st2" d="M73.5,36.3l3.1-8.2C70.5,18.6,59.9,12,47.7,11.6v5.7C59.6,17.9,69.4,26,73.5,36.3z"/>
			<path class="st2" d="M75.5,44.6c0.1,0.8,0.1,1.6,0.1,2.5c0,14.8-12.1,29.1-28,29.8v5.7C67,82,82.2,65.9,82.2,47.1
				c0-3.3-0.5-6.5-1.3-9.5L75.5,44.6z"/>
		</g>
		<g>
			<path class="st2" d="M62.1,47.1c0,2.1-0.2,4.1-0.6,6.1l4.6-6.3c-0.1-14.4-8.3-26.6-18.5-27.1v4.4C56.2,24.7,62.1,35.7,62.1,47.1z
				"/>
			<path class="st2" d="M56.2,65.2c-0.9,1.1-2,2.1-3.1,2.8l-3.1,2.8l-2.4,1.6v1.9c7.8-0.3,14.3-7.4,17.1-17L56.2,65.2z"/>
		</g>
		<g>
			<path class="st2" d="M38.7,72.1c1.1-0.7,2.7-1.7,4.3-2.6c-7-2.4-11.7-12.3-11.7-22.4c0-11.4,6-22.5,14.5-23v-4.4
				c-10.4,0.5-18.6,12.8-18.6,27.3C27.2,58.1,31.9,67.8,38.7,72.1z"/>
			<path class="st3" d="M45,74.3c0.3,0,0.5,0.1,0.8,0.1v-0.6L45,74.3z"/>
		</g>
		<g>
			<path class="st2" d="M35.5,80.7c3.2,1.1,6.7,1.7,10.3,1.8v-5.7c-1.3,0-2.6-0.2-3.9-0.4L35.5,80.7z"/>
			<path class="st2" d="M34.6,74c-10-5-16.9-15.8-16.9-26.9c0-14.8,12.2-29.2,28.1-29.8v-5.7c-19.3,0.6-34.6,16.6-34.6,35.5
				c0,12.2,6.3,23.1,16,29.6C28.8,76.1,32.3,74.8,34.6,74z"/>
		</g>
	</g>
	<circle class="st4" cx="46.3" cy="47.2" r="36.2"/>
	<g class="st1">
		<path class="st3" d="M34.3,76.5c7.3-3.3,16-9.4,24.2-17.4c8.2-8,14.4-16.6,17.9-23.9c3.7-7.8,4.3-14.4,0.8-17.8
			c-2.8-2.8-7.5-3.1-13.4-1.3c1.3,0.7,2.6,1.6,3.8,2.4c3.2-0.6,5.7-0.3,7.2,1.2c1.4,1.4,1.9,4.4,1,7.7c-0.6,2.6-2,5.4-2.4,6.3
			c-3.3,6.9-9.3,15.1-17.2,23c-7.9,7.7-16.3,13.6-23.3,16.8c-0.9,0.4-3.4,1.2-4.5,1.6c-0.2,0.1-0.4,0.1-0.5,0.1
			c-3.2,0.6-7.7,0.8-9.1-0.6c-1.4-1.4-1.7-4-1-7.1c-0.9-1.2-1.7-2.5-2.4-3.9c-1.9,5.8-1.8,10.6,1.1,13.4
			C19.8,80.5,26.4,80.1,34.3,76.5z"/>
		<path class="st3" d="M87,7.6c-4.3-4.7-12.9-4-23.3,0.6c-2.7,1.3-5.6,2.7-8.6,4.5c1.5,0.4,3,0.8,4.4,1.4c1.9-1.1,3.8-2,5.6-2.9
			c9-4.1,16.3-4.9,19.6-1.4c3.3,3.4,2.4,10.7-1.9,19.6c-4.4,9.4-12.5,20.5-23.3,31l-0.1,0.1C48.9,70.9,37.7,78.8,28.3,83.1
			c-9,4.1-16.3,4.9-19.6,1.4c-3.4-3.4-2.4-10.7,1.8-19.6c0.9-1.8,1.9-3.7,3-5.6c-0.5-1.4-0.9-2.8-1.3-4.3c-1.8,2.9-3.4,5.7-4.6,8.4
			C2.7,73.8,1.9,82.4,6.3,86.9c4.4,4.6,13.1,3.9,23.4-0.7c2.8-1.3,7.8-4.1,10.7-5.9c6.4-4.3,15.1-11,21.6-17.4l0.1-0.1
			c6.5-6.4,13.4-14.9,17.8-21.3c1.9-2.9,4.8-7.8,6-10.6C90.7,20.7,91.5,12.1,87,7.6z"/>
	</g>
</g>
<g id="docs_js" class="st0">
	<g class="st1">
		<path class="st2" d="M89.2,24.5H50.8c-1.6,0-2.9,1.3-2.9,2.9V43c0,1.6,1.3,2.9,2.9,2.9h38.4c1.6,0,2.9-1.3,2.9-2.9V27.4
			C92.1,25.8,90.8,24.5,89.2,24.5z M89.5,27.4V43c0,0.2-0.1,0.3-0.3,0.3c-40.4-0.1-38.7,0.3-38.7-0.3V27.4c0-0.2,0.1-0.3,0.3-0.3
			C91.2,27.3,89.5,26.9,89.5,27.4z"/>
		<path class="st2" d="M27.5,22.8H66c1.6,0,2.9-1.3,2.9-2.9V4.3c0-1.6-1.3-2.9-2.9-2.9H27.5c-1.6,0-2.9,1.3-2.9,2.9v15.6
			C24.6,21.5,25.9,22.8,27.5,22.8z M66,4c0.2,0,0.3,0.1,0.3,0.3v15.6h0c0,0.2-0.1,0.3-0.3,0.3H27.5c-0.2,0-0.3-0.1-0.3-0.3V4.3h0
			C27.3,3.8,25.6,4.2,66,4z"/>
		<path class="st2" d="M89.2,1.4H73.8c-1.6,0-2.9,1.3-2.9,2.9v15.6c0,1.6,1.3,2.9,2.9,2.9h15.4c1.6,0,2.9-1.3,2.9-2.9V4.3
			C92.1,2.7,90.8,1.4,89.2,1.4z M89.5,19.9c0,0.2-0.1,0.3-0.3,0.3H73.8c-0.2,0-0.3-0.1-0.3-0.3V4.3c0-0.2,0.1-0.3,0.3-0.3h15.4
			c0.2,0,0.3,0.1,0.3,0.3V19.9z"/>
		<path class="st2" d="M89.2,47.6H73.8c-1.6,0-2.9,1.3-2.9,2.9v15.6c0,1.6,1.3,2.9,2.9,2.9h15.4c1.6,0,2.9-1.3,2.9-2.9V50.5
			C92.1,48.9,90.8,47.6,89.2,47.6z M89.5,66.1c0,0.2-0.1,0.3-0.3,0.3H73.8c-0.2,0-0.3-0.1-0.3-0.3V50.5c0-0.2,0.1-0.3,0.3-0.3h15.4
			c0.2,0,0.3,0.1,0.3,0.3V66.1z"/>
		<path class="st2" d="M4.3,69h15.4c1.6,0,2.9-1.3,2.9-2.9V50.5c0-1.6-1.3-2.9-2.9-2.9H4.3c-1.6,0-2.9,1.3-2.9,2.9v15.6
			C1.4,67.7,2.7,69,4.3,69z M4,50.5c0-0.2,0.1-0.3,0.3-0.3h15.4c0.2,0,0.3,0.1,0.3,0.3v15.6c0,0.2-0.1,0.3-0.3,0.3H4.3
			c-0.2,0-0.3-0.1-0.3-0.3V50.5z"/>
		<path class="st2" d="M4.3,45.9h38.4c1.6,0,2.9-1.3,2.9-2.9V27.4c0-1.6-1.3-2.9-2.9-2.9H4.3c-1.6,0-2.9,1.3-2.9,2.9V43
			C1.4,44.6,2.7,45.9,4.3,45.9z M42.7,27.1c0.2,0,0.3,0.1,0.3,0.3V43c0,0.2-0.1,0.3-0.3,0.3C2.3,43.1,4,43.5,4,43V27.4
			C4,26.9,2.3,27.3,42.7,27.1z"/>
		<path class="st2" d="M89.2,70.7H50.8c-1.6,0-2.9,1.3-2.9,2.9v15.6c0,1.6,1.3,2.9,2.9,2.9h38.4c1.6,0,2.9-1.3,2.9-2.9V73.6
			C92.1,72,90.8,70.7,89.2,70.7z M89.5,89.2c0,0.2-0.1,0.3-0.3,0.3c-40.4-0.1-38.7,0.3-38.7-0.3V73.6c0-0.6-1.7-0.2,38.7-0.3
			c0.2,0,0.3,0.1,0.3,0.3V89.2z"/>
		<path class="st2" d="M42.7,70.7H4.3c-1.6,0-2.9,1.3-2.9,2.9v15.6c0,1.6,1.3,2.9,2.9,2.9h4.6c0.7,0,1.3-0.6,1.3-1.3
			c0-0.7-0.6-1.3-1.3-1.3H4.3c-0.2,0-0.3-0.1-0.3-0.3V73.6c0-0.2,0.1-0.3,0.3-0.3C44.7,73.5,43,73.1,43,73.6v15.6
			c0,0.6,0.9,0.2-27.9,0.3c-0.7,0-1.3,0.6-1.3,1.3c0,0.7,0.6,1.3,1.3,1.3h27.6c1.6,0,2.9-1.3,2.9-2.9V73.6
			C45.7,72,44.3,70.7,42.7,70.7z"/>
		<path class="st2" d="M54.7,50.2c0.7,0,1.3-0.6,1.3-1.3s-0.6-1.3-1.3-1.3H27.5c-1.6,0-2.9,1.3-2.9,2.9v15.6c0,1.6,1.3,2.9,2.9,2.9
			H66c1.6,0,2.9-1.3,2.9-2.9V50.5c0-1.6-1.3-2.9-2.9-2.9h-5.1c-0.7,0-1.3,0.6-1.3,1.3s0.6,1.3,1.3,1.3H66c0.2,0,0.3,0.1,0.3,0.3
			v15.6c0,0.6,1.7,0.2-38.7,0.3c-0.2,0-0.3-0.1-0.3-0.3V50.5C27.3,50,26.4,50.4,54.7,50.2z"/>
		<path class="st2" d="M2.7,10.3C3.4,10.3,4,9.7,4,9V4.3C4,4.2,4.2,4,4.3,4h15.4C19.8,4,20,4.2,20,4.3v15.6c0,0.2-0.1,0.3-0.3,0.3
			H4.3C4.2,20.2,4,20,4,19.9v-4.7c0-0.7-0.6-1.3-1.3-1.3c-0.7,0-1.3,0.6-1.3,1.3v4.7c0,1.6,1.3,2.9,2.9,2.9h15.4
			c1.6,0,2.9-1.3,2.9-2.9V4.3c0-1.6-1.3-2.9-2.9-2.9H4.3c-1.6,0-2.9,1.3-2.9,2.9V9C1.4,9.7,2,10.3,2.7,10.3z"/>
	</g>
</g>
<g id="app" class="st0">
	<g class="st1">
		<g>
			<g>
				<path class="st2" d="M84.6,1.4H8.9C4.8,1.4,1.4,4.8,1.4,9v75.6c0,4.2,3.4,7.6,7.6,7.6h75.6c4.2,0,7.6-3.4,7.6-7.6V9
					C92.1,4.8,88.7,1.4,84.6,1.4z M89.1,84.6c0,2.5-2,4.5-4.5,4.5H8.9c-2.5,0-4.5-2-4.5-4.5V16.5h84.7L89.1,84.6L89.1,84.6z
					 M89.1,13.5H4.4V9c0-2.5,2-4.5,4.5-4.5h75.6c2.5,0,4.5,2,4.5,4.5L89.1,13.5L89.1,13.5z"/>
				<path class="st2" d="M12,7.4h-1.5C9.6,7.4,8.9,8.1,8.9,9s0.7,1.5,1.5,1.5H12c0.8,0,1.5-0.7,1.5-1.5S12.8,7.4,12,7.4z"/>
				<path class="st2" d="M18.6,7.6c-0.4-0.2-0.8-0.2-1.1,0c-0.2,0.1-0.4,0.2-0.5,0.3c-0.6,0.6-0.6,1.6,0,2.1
					c0.1,0.1,0.3,0.2,0.5,0.3c0.4,0.2,0.8,0.2,1.1,0c0.2-0.1,0.4-0.2,0.5-0.3c0.6-0.6,0.6-1.6,0-2.1C18.9,7.7,18.8,7.6,18.6,7.6z"/>
				<path class="st2" d="M24.6,7.5c-0.6-0.2-1.2-0.1-1.7,0.3c-0.1,0.1-0.2,0.3-0.3,0.5c-0.2,0.4-0.2,0.8,0,1.1
					c0.1,0.2,0.2,0.4,0.3,0.5c0.6,0.6,1.6,0.6,2.1,0c0.1-0.1,0.2-0.3,0.3-0.5c0.1-0.2,0.1-0.4,0.1-0.6C25.6,8.3,25.2,7.8,24.6,7.5z"
					/>
				<path class="st2" d="M83,7.4H31.6c-0.8,0-1.5,0.7-1.5,1.5s0.7,1.5,1.5,1.5H83c0.8,0,1.5-0.7,1.5-1.5S83.9,7.4,83,7.4z"/>
				<path class="st2" d="M24.6,73.4c0.1,0.1,0.1,0.1,0.2,0.2c5.7,6.1,13.6,9.5,21.9,9.5c8.3,0,16.2-3.4,21.9-9.5
					c0.1,0,0.1-0.1,0.2-0.2c0-0.1,0.1-0.1,0.1-0.2C79.7,61.7,79.7,44,69,32.4l0,0c0-0.1-0.1-0.2-0.1-0.2c-0.1-0.1-0.1-0.1-0.2-0.2
					c-5.7-6-13.6-9.5-21.9-9.5S30.5,26,24.8,32c-0.1,0-0.2,0.1-0.2,0.2c0,0.1-0.1,0.1-0.1,0.2c-10.6,11.5-10.6,29.2,0,40.8
					C24.5,73.3,24.5,73.3,24.6,73.4z M55,78.7c2.3-2.8,4.1-6,5.1-9.5v0c1.9,0.9,3.7,2,5.3,3.3C62.5,75.4,58.9,77.5,55,78.7z
					 M67.6,70.3c-2-1.6-4.2-3-6.6-4c1-3.9,1.5-7.9,1.6-11.9h11.3C73.6,60.2,71.4,65.8,67.6,70.3z M73.9,51.3H62.6
					c-0.1-4-0.6-8-1.6-11.9c2.4-1.1,4.6-2.4,6.6-4C71.4,39.8,73.6,45.4,73.9,51.3z M65.5,33.1c-1.7,1.3-3.4,2.4-5.3,3.3
					c-1.1-3.5-2.8-6.7-5.1-9.5C58.9,28.1,62.5,30.3,65.5,33.1z M48.3,25.8c3.7,1,7,5.4,9.1,11.7c-2.9,1-6,1.6-9.1,1.7V25.8z
					 M48.3,42.3c3.4-0.1,6.7-0.7,9.9-1.8c0.9,3.5,1.3,7.2,1.4,10.8H48.3V42.3z M48.3,54.3h11.3c-0.1,3.6-0.6,7.3-1.4,10.8
					c-3.2-1.1-6.5-1.7-9.9-1.8V54.3z M48.3,66.4c3.1,0.1,6.1,0.7,9.1,1.7c-2.1,6.3-5.3,10.8-9.1,11.7V66.4z M28,72.5
					c1.7-1.3,3.4-2.4,5.3-3.3v0c1.1,3.5,2.8,6.7,5.1,9.5C34.6,77.5,31,75.3,28,72.5z M45.2,79.8c-3.7-1-7-5.4-9.1-11.7
					c2.9-1,6-1.6,9.1-1.7V79.8L45.2,79.8z M45.2,63.3c-3.4,0.1-6.7,0.7-9.9,1.8c-0.9-3.5-1.3-7.2-1.4-10.8h11.3V63.3z M45.2,51.3
					H33.9c0.1-3.6,0.6-7.3,1.4-10.8c3.2,1.1,6.5,1.7,9.9,1.8V51.3z M45.2,25.8v13.5c-3.1-0.1-6.1-0.7-9.1-1.7
					C38.3,31.2,41.5,26.8,45.2,25.8z M38.5,26.9c-2.3,2.8-4.1,6.1-5.1,9.5v0c-1.9-0.9-3.7-2-5.3-3.3C31,30.3,34.6,28.1,38.5,26.9z
					 M25.9,35.3c2,1.6,4.2,3,6.6,4c-1,3.9-1.5,7.9-1.6,11.9H19.6C19.9,45.4,22.1,39.8,25.9,35.3z M30.9,54.3c0.1,4,0.6,8,1.6,11.9
					c-2.4,1.1-4.6,2.4-6.6,4c-3.8-4.5-6-10.1-6.3-16L30.9,54.3L30.9,54.3z"/>
			</g>
		</g>
	</g>
</g>
<g id="build" class="st0">
	<g class="st1">
		<g>
			<path class="st2" d="M82.2,65.7c-0.5-0.2-1.1-0.1-1.5,0.3L65.9,80.8c-0.4,0.4-0.5,1-0.3,1.5c0.2,0.5,0.7,0.8,1.2,0.8h14.8
				c0.7,0,1.4-0.6,1.4-1.4V66.9C83,66.4,82.7,65.9,82.2,65.7z M70.2,80.4l10.2-10.2v10.2H70.2z"/>
		</g>
	</g>
	<g class="st1">
		<g>
			<path class="st2" d="M92,44c-0.5-0.2-1.1-0.1-1.5,0.3l-4,4V20.8c0-0.7-0.6-1.4-1.4-1.4H74.7l3.8-3.8c0,0,0,0,0,0l3.6-3.6
				c0.8-0.8,1.2-1.8,1.2-2.9S82.9,7,82.1,6.3l-4.2-4.2c-0.8-0.8-1.8-1.2-2.9-1.2s-2.1,0.4-2.9,1.2l-3.6,3.6l-4.4,4.4l-9.4,9.4h-42
				V6.1c0-0.7-0.6-1.4-1.4-1.4C5.5,4.8,0.7,9.5,0.7,15.4v57.4c0,0.1,0,0.2,0,0.3c0.2,2.5,1.3,4.8,3.1,6.6c1.9,1.9,4.5,2.9,7.1,2.9
				h41.3l-7.8,7.8c-0.4,0.4-0.5,1-0.3,1.5c0.2,0.5,0.7,0.8,1.2,0.8h46c0.7,0,1.4-0.6,1.4-1.4v-46C92.8,44.7,92.5,44.2,92,44z M74,4
				c0.6-0.6,1.5-0.6,2,0l4.2,4.2c0.6,0.6,0.6,1.5,0,2l-2.7,2.7l-6.2-6.2L74,4z M69.4,8.6l6.2,6.2l-2.5,2.5L66.9,11L69.4,8.6z
				 M90.1,60.5h-2.5c-0.7,0-1.4,0.6-1.4,1.4s0.6,1.4,1.4,1.4h2.5v4.1h-2.5c-0.7,0-1.4,0.6-1.4,1.4s0.6,1.4,1.4,1.4h2.5V74h-2.5
				c-0.7,0-1.4,0.6-1.4,1.4c0,0.7,0.6,1.4,1.4,1.4h2.5v4.1h-2.5c-0.7,0-1.4,0.6-1.4,1.4c0,0.7,0.6,1.4,1.4,1.4h2.5v6.4H48.7
				l13.7-13.7c0.5-0.5,0.5-1.4,0-1.9c-0.1-0.1-0.1-0.1-0.2-0.2c-0.5-0.4-1.3-0.3-1.7,0.2L55,79.9h-44c-4.1,0-7.4-3.2-7.5-7.3
				c0-0.3,0-0.5,0.1-0.8c0,0,0,0,0,0c0-0.1,0-0.2,0.1-0.4c0,0,0,0,0,0c0-0.1,0-0.2,0.1-0.3c0,0,0-0.1,0-0.1c0-0.1,0-0.2,0.1-0.3
				c0,0,0-0.1,0-0.1c0-0.1,0-0.1,0.1-0.2c0-0.1,0-0.1,0.1-0.2c0,0,0-0.1,0.1-0.1C3.9,70,4,69.9,4,69.8c0,0,0-0.1,0-0.1
				c0-0.1,0.1-0.2,0.1-0.3c0,0,0,0,0,0c1.1-2.2,3.1-3.8,5.5-4.3c0,0,0,0,0,0c0.1,0,0.2,0,0.3-0.1c0,0,0,0,0.1,0c0.1,0,0.2,0,0.3,0
				c0,0,0.1,0,0.1,0c0.1,0,0.2,0,0.3,0c0,0,0.1,0,0.1,0c0.1,0,0.3,0,0.4,0c0.7,0,1.4-0.6,1.4-1.4v-9.8c0-0.7-0.6-1.4-1.4-1.4
				S10,53,10,53.7v8.5c-2.3,0.3-4.4,1.3-6.1,2.9c-0.2,0.2-0.3,0.4-0.5,0.5V15.4c0-3.9,2.8-7.2,6.6-7.8v13.3v27.5v0
				c0,0.7,0.6,1.4,1.4,1.4c0.7,0,1.4-0.6,1.4-1.4v0V22.2h39.3l-7.5,7.5c-0.5,0.5-0.5,1.4,0,1.9c0.5,0.5,1.4,0.5,1.9,0l9.8-9.8
				c0,0,0,0,0,0l8.8-8.8l6.2,6.2l-0.7,0.7c0,0,0,0,0,0L43.2,47.1L37,40.9l5.4-5.4c0.5-0.5,0.5-1.4,0-1.9c-0.5-0.5-1.4-0.5-1.9,0
				L34.2,40c0,0-0.1,0.1-0.1,0.1c0,0,0,0,0,0c0,0,0,0.1-0.1,0.1c0,0,0,0,0,0c0,0,0,0.1,0,0.1c0,0,0,0,0,0.1c0,0,0,0.1,0,0.1
				c0,0,0,0,0,0l-2.6,7.5L29.4,53c0,0.1,0,0.1-0.1,0.2h-4.5c-0.7,0-1.4,0.6-1.4,1.4c0,0.7,0.6,1.4,1.4,1.4h37.4
				c0.7,0,1.4-0.6,1.4-1.4c0-0.7-0.6-1.4-1.4-1.4H35.4l8.2-2.9c0,0,0,0,0,0c0,0,0.1,0,0.1,0c0,0,0,0,0,0c0,0,0.1,0,0.1-0.1
				c0,0,0,0,0,0c0,0,0.1,0,0.1-0.1c0,0,0,0,0,0c0,0,0.1-0.1,0.1-0.1L72,22.2h11.7v28.9L64.4,70.4c-0.5,0.5-0.5,1.4,0,1.9
				c0,0,0.1,0.1,0.1,0.1c0.2,0.2,0.6,0.3,0.9,0.3s0.6-0.1,0.9-0.3c0,0,0.1-0.1,0.1-0.1c0,0,0,0,0,0l23.8-23.8V60.5z M40.8,48.5
				l-3.9,1.4l-2.6-2.6l1.4-3.9L40.8,48.5z"/>
		</g>
	</g>
</g>
<g id="ecosystem" class="st0">
	<g class="st1">
		<g>
			<g>
				<g>
					<path class="st2" d="M78.5,48.5c-0.7,0-1.4-0.5-1.7-1.2c-0.2-0.7,0-1.4,0.5-1.9c0.6-0.5,1.4-0.6,2.1-0.2c0.6,0.4,1,1.1,0.9,1.8
						C80.2,47.9,79.4,48.5,78.5,48.5L78.5,48.5z"/>
				</g>
			</g>
			<path class="st2" d="M78.8,14.6c-8.6-8.6-20-13.3-32.1-13.3c-9.1,0-17.8,2.7-25.3,7.7c-1-0.7-2.2-1.1-3.5-1.1
				c-3.4,0-6.2,2.8-6.2,6.2c0,1,0.3,2,0.7,2.9C5.3,25.3,1.3,35.8,1.3,46.7C1.3,55,3.6,63,7.8,70c-1.5,1.4-2.4,3.4-2.4,5.6
				c0,4.3,3.5,7.7,7.7,7.7c1.8,0,3.4-0.6,4.7-1.6c8.1,6.7,18.3,10.4,28.9,10.4c12.1,0,23.5-4.7,32.1-13.3c8.6-8.6,13.3-20,13.3-32.1
				S87.4,23.2,78.8,14.6L78.8,14.6z M17.9,11.5c1.5,0,2.6,1.2,2.6,2.6s-1.2,2.6-2.6,2.6s-2.6-1.2-2.6-2.6
				C15.2,12.7,16.4,11.5,17.9,11.5z M13.1,79.8c-2.3,0-4.2-1.9-4.2-4.2c0-2.3,1.9-4.2,4.2-4.2s4.2,1.9,4.2,4.2
				C17.3,77.9,15.4,79.8,13.1,79.8z M46.7,88.5c-9.7,0-19.2-3.4-26.6-9.6c0.5-1,0.8-2.2,0.8-3.4c0-4.3-3.5-7.7-7.7-7.7
				c-0.8,0-1.6,0.1-2.3,0.3c-3.9-6.5-5.9-13.9-5.9-21.5c0-10,3.5-19.6,10-27.2c0.9,0.5,1.9,0.8,3,0.8c3.4,0,6.2-2.8,6.2-6.2
				c0-0.8-0.2-1.6-0.4-2.3c6.9-4.6,14.8-7,23.1-7c23.1,0,41.8,18.8,41.8,41.8S69.8,88.5,46.7,88.5L46.7,88.5z"/>
			<path class="st2" d="M78.1,52.1c-1-0.2-1.9,0.4-2.1,1.3C73.6,64,65.5,72.6,55.1,75.6c-1.1-1.9-3.1-3.2-5.4-3.2
				c-2.7,0-5.1,1.8-5.9,4.3c-15.3-1.5-27.2-14.3-27.2-29.9c0-16.6,13.5-30.1,30.1-30.1c5.1,0,10.2,1.3,14.6,3.8
				c-0.5,1-0.7,2-0.7,3.2c0,4.1,3.3,7.4,7.4,7.4c1.3,0,2.6-0.4,3.7-1c2.1,3.1,3.5,6.4,4.3,10c0.2,0.8,0.9,1.4,1.7,1.4
				c0.1,0,0.3,0,0.4,0c1-0.2,1.6-1.2,1.3-2.1c-1-4.2-2.7-8.2-5.2-11.7c0.7-1.1,1.1-2.5,1.1-3.9c0-4.1-3.3-7.4-7.4-7.4
				c-1.6,0-3.2,0.5-4.4,1.4c-5.1-3-10.9-4.6-16.9-4.6c-18.5,0-33.6,15.1-33.6,33.6c0,17.5,13.4,32,30.6,33.5c0.7,2.6,3.1,4.5,6,4.5
				c3.2,0,5.9-2.5,6.2-5.7c5.6-1.6,10.7-4.6,14.8-8.7c4.4-4.5,7.5-10,8.9-16.1C79.7,53.3,79.1,52.3,78.1,52.1L78.1,52.1z M71.8,23.6
				c0,2.1-1.7,3.8-3.8,3.8c-2.1,0-3.8-1.7-3.8-3.8c0-2.1,1.7-3.8,3.8-3.8C70.1,19.8,71.8,21.5,71.8,23.6z M49.7,81.2
				c-1.5,0-2.6-1.2-2.6-2.6c0-1.5,1.2-2.6,2.6-2.6c1.5,0,2.6,1.2,2.6,2.6C52.3,80,51.2,81.2,49.7,81.2z"/>
			<g>
			</g>
		</g>
	</g>
	<g class="st1">
		<path class="st2" d="M46.2,66.8C35.4,66.5,27,57.4,27,46.8c0-10.7,8.5-19.7,19.3-20v3.2c-8.8,0.3-15.6,8.4-15.6,16.8
			c0,8.4,6.8,16.5,15.6,16.8V66.8z"/>
		<path class="st2" d="M46.2,62.2c-5.8-0.3-10.3-7.2-10.3-15.4c0-8.2,4.6-15.2,10.3-15.4v2.5c-4.7,0.3-8.1,6.5-8.1,13
			c0,6.5,3.4,12.7,8.1,13V62.2z"/>
	</g>
	<path class="st5" d="M47.3,59.7c4.7-0.3,8-6.5,8-13c0-6.5-3.3-12.6-8-13v-2.5c5.8,0.3,10.3,7.2,10.3,15.4c0,8.2-4.5,15.2-10.3,15.4
		V59.7z"/>
	<path class="st5" d="M47.3,63.6c8.8-0.4,15.6-8.4,15.6-16.8c0-8.4-6.7-16.4-15.6-16.8v-3.2c10.7,0.3,19.2,9.4,19.2,20
		c0,10.7-8.4,19.7-19.2,20V63.6z"/>
</g>
<g id="Layer_9">
	<g>
		<path class="st2" d="M45.8,90.2C22.3,89.5,4,69.9,4,46.8C4,23.7,22.4,4.1,45.8,3.3v6.9C26.6,11,11.9,28.6,11.9,46.8
			c0,18.2,14.8,35.8,33.9,36.5V90.2z"/>
		<path class="st2" d="M45.8,80.2c-12.6-0.6-22.4-15.7-22.4-33.5c0-17.8,9.9-32.9,22.4-33.5v5.3c-10.3,0.6-17.5,14.1-17.5,28.1
			c0,14,7.3,27.6,17.5,28.1V80.2z"/>
	</g>
	<path class="st3" d="M48,74.9c10.3-0.6,17.4-14.1,17.4-28.1c0-14-7.2-27.4-17.4-28.1v-5.3C60.5,13.9,70.4,29,70.4,46.8
		c0,17.8-9.8,32.9-22.4,33.5V74.9z"/>
	<path class="st3" d="M48,83.3C67.2,82.4,81.8,65,81.8,46.8c0-18.2-14.6-35.5-33.7-36.5V3.3c23.2,0.7,41.6,20.3,41.6,43.4
		c0,23.1-18.3,42.7-41.6,43.4V83.3z"/>
</g>
<g id="nodes" class="st0">
	<path class="st6" d="M80.2,68.3c-3.5,0-6.6,1.5-8.8,3.8L47.7,54.8c1.3-2.3,2.1-4.9,2.1-7.7c0-1.3-0.2-2.6-0.5-3.8l20.1-7.4
		c2,3.9,6.1,6.6,10.8,6.6c6.7,0,12.2-5.5,12.2-12.2s-5.5-12.2-12.2-12.2c-6.7,0-12.2,5.5-12.2,12.2c0,0.9,0.1,1.8,0.3,2.7l-20.1,7.4
		c-1.5-3.1-4-5.6-7.1-7.1l2.9-7.9c0.9,0.2,1.8,0.3,2.7,0.3c6.7,0,12.2-5.5,12.2-12.2S53.5,1.4,46.7,1.4S34.6,6.9,34.6,13.6
		c0,4.7,2.7,8.8,6.6,10.8l-2.9,7.9c-1.2-0.3-2.4-0.5-3.7-0.5c-2.5,0-4.8,0.6-6.8,1.6L21.1,23c2.7-2.2,4.4-5.6,4.4-9.4
		c0-6.7-5.5-12.2-12.2-12.2S1.1,6.9,1.1,13.6s5.5,12.2,12.2,12.2c1.9,0,3.6-0.4,5.2-1.2l6.7,10.5c-3.5,2.8-5.8,7.1-5.8,11.9
		c0,4.6,2.1,8.7,5.3,11.5L19,66.7c-1.7-0.9-3.6-1.4-5.7-1.4c-6.7,0-12.2,5.5-12.2,12.2s5.5,12.2,12.2,12.2s12.2-5.5,12.2-12.2
		c0-3.6-1.6-6.8-4-9l5.7-8.2c2.2,1.2,4.7,1.9,7.4,1.9c4.5,0,8.5-2,11.3-5l23.7,17.4c-1,1.8-1.5,3.8-1.5,5.9
		c0,6.7,5.5,12.2,12.2,12.2s12.2-5.5,12.2-12.2C92.4,73.8,86.9,68.3,80.2,68.3L80.2,68.3z M80.2,21.2c5,0,9.1,4.1,9.1,9.1
		s-4.1,9.1-9.1,9.1s-9.1-4.1-9.1-9.1S75.2,21.2,80.2,21.2z M37.6,13.6c0-5,4.1-9.1,9.1-9.1s9.1,4.1,9.1,9.1s-4.1,9.1-9.1,9.1
		S37.6,18.6,37.6,13.6z M4.2,13.6c0-5,4.1-9.1,9.1-9.1s9.1,4.1,9.1,9.1s-4.1,9.1-9.1,9.1S4.2,18.6,4.2,13.6z M22.4,77.5
		c0,5-4.1,9.1-9.1,9.1s-9.1-4.1-9.1-9.1s4.1-9.1,9.1-9.1S22.4,72.4,22.4,77.5z M34.6,59.2c-6.7,0-12.2-5.5-12.2-12.2
		s5.5-12.2,12.2-12.2S46.7,40.3,46.7,47S41.3,59.2,34.6,59.2z M80.2,89.6c-5,0-9.1-4.1-9.1-9.1s4.1-9.1,9.1-9.1s9.1,4.1,9.1,9.1
		S85.2,89.6,80.2,89.6z"/>
</g>
</svg>
