<svg xmlns="http://www.w3.org/2000/svg" viewBox="0 0 93.5 93.5"><defs><style>.cls-1{fill:#a04e9e;}</style></defs><g id="join_a_network" data-name="join a network"><path class="cls-1" d="M47.31,91.84a1.57,1.57,0,0,1-.81-.22L25.77,79.38A1.59,1.59,0,0,1,25,78V53.52a1.57,1.57,0,0,1,.78-1.37L46.5,39.91a1.57,1.57,0,0,1,1.62,0L68.86,52.15a1.6,1.6,0,0,1,.78,1.37V78a1.61,1.61,0,0,1-.78,1.38L48.12,91.62A1.57,1.57,0,0,1,47.31,91.84ZM28.18,77.09l19.13,11.3,19.14-11.3V54.43L47.31,43.13,28.18,54.43Zm19.13,6.77a1.61,1.61,0,0,1-.79-.21L32.17,75.4A1.6,1.6,0,0,1,31.36,74V57.51a1.61,1.61,0,0,1,.81-1.39l14.35-8.25a1.61,1.61,0,0,1,1.59,0l14.35,8.25a1.6,1.6,0,0,1,.8,1.39V74a1.59,1.59,0,0,1-.8,1.38L48.11,83.65A1.62,1.62,0,0,1,47.31,83.86ZM34.56,73.09l12.75,7.34,12.76-7.34V58.43L47.31,51.09,34.56,58.43ZM61.67,74h0Z"/><path class="cls-1" d="M26.58,55.16a1.58,1.58,0,0,1-.81-.23L5,42.69a1.58,1.58,0,0,1-.79-1.37V16.84A1.6,1.6,0,0,1,5,15.46L25.77,3.22a1.62,1.62,0,0,1,1.62,0L48.12,15.46a1.6,1.6,0,0,1,.79,1.38V41.32a1.58,1.58,0,0,1-.79,1.37L27.39,54.93A1.58,1.58,0,0,1,26.58,55.16ZM7.44,40.41l19.14,11.3,19.14-11.3V17.75L26.58,6.45,7.44,17.75Zm19.14,6.77a1.58,1.58,0,0,1-.79-.21L11.43,38.72a1.63,1.63,0,0,1-.8-1.39V20.83a1.61,1.61,0,0,1,.8-1.39l14.36-8.25a1.56,1.56,0,0,1,1.59,0l14.35,8.25a1.61,1.61,0,0,1,.8,1.39v16.5a1.63,1.63,0,0,1-.8,1.39L27.38,47A1.65,1.65,0,0,1,26.58,47.18ZM13.82,36.41l12.76,7.34,12.76-7.34V21.75L26.58,14.41,13.82,21.75Zm27.11.92h0Z"/><path class="cls-1" d="M68.05,55.16a1.58,1.58,0,0,1-.81-.23L46.5,42.69a1.6,1.6,0,0,1-.78-1.37V16.84a1.61,1.61,0,0,1,.78-1.38L67.24,3.22a1.62,1.62,0,0,1,1.62,0L89.59,15.46a1.6,1.6,0,0,1,.79,1.38V41.32a1.58,1.58,0,0,1-.79,1.37L68.86,54.93A1.58,1.58,0,0,1,68.05,55.16ZM48.91,40.41l19.14,11.3,19.14-11.3V17.75L68.05,6.45,48.91,17.75Zm19.14,6.77a1.62,1.62,0,0,1-.8-.21L52.9,38.72a1.6,1.6,0,0,1-.8-1.39V20.83a1.59,1.59,0,0,1,.8-1.39l14.35-8.25a1.56,1.56,0,0,1,1.59,0L83.2,19.44a1.61,1.61,0,0,1,.8,1.39v16.5a1.63,1.63,0,0,1-.8,1.39L68.84,47A1.58,1.58,0,0,1,68.05,47.18ZM55.29,36.41l12.76,7.34,12.76-7.34V21.75L68.05,14.41,55.29,21.75Zm27.11.92h0Z"/></g></svg>