<svg xmlns="http://www.w3.org/2000/svg" viewBox="0 0 93.5 93.5"><defs><style>.cls-1{fill:#a04e9e;}</style></defs><g id="manage_validator" data-name="manage validator"><path class="cls-1" d="M51.5,58.25c-20.3-9.1-33-27.5-33.8-46.1a1,1,0,0,0-1.6-.7,46.76,46.76,0,0,0,30,81.8,46.78,46.78,0,0,0,44.6-30,.91.91,0,0,0-1.1-1.2A59.29,59.29,0,0,1,51.5,58.25Z"/><path class="cls-1" d="M70.8,11.15a12.13,12.13,0,0,1,1.4,1h0a13.44,13.44,0,0,1,1.4,1.1l.1.1c.4.3.8.7,1.3,1.1l.1.1.1.1c.4.4.8.7,1.2,1.1l.1.1.1.1,1.2,1.2,2.9-2.8-2.8,2.8c.4.4.8.9,1.2,1.3a17.41,17.41,0,0,0,1.2,1.4l.1.1h0a19.41,19.41,0,0,1,2.1,2.9V23l.1.1c.3.5.6,1,.9,1.4h0c.3.5.6,1.1.9,1.6v.1h0c.3.5.6,1.1.9,1.7s.5,1,.7,1.6v.1c.5,1.1.9,2.3,1.3,3.4v.1a10.93,10.93,0,0,1,.5,1.7V35l.9,3.6v.3a45.25,45.25,0,0,1,.7,7.4c-7.8-6.3-13.6-12.1-16.7-22.1l-.1-.3v-.1l-.3-1.2v-.2l-.1-.3c-.1-.5-.3-1.1-.4-1.6-.3-1.5-.5-3.1-.7-4.8a17.34,17.34,0,0,0-.3-4.5M50.2,0h.5c.4,0,.8.1,1.2.1h0a5,5,0,0,1,1.2.2h0c.4.1.7.1,1.1.2h0c.4.1.7.1,1,.2h0c.3.1.6.1,1,.2h.1a2.92,2.92,0,0,0,.9.2h.1a6.89,6.89,0,0,1,.8.3h.1a4.88,4.88,0,0,1,.7.3H59c.2.1.5.2.7.3a.1.1,0,0,1,.1.1l.6.3c.1,0,.1.1.2.1l.6.3c.1,0,.1.1.2.1s.3.2.5.3l.2.2c.1.1.3.2.4.3s.2.1.2.2l.3.3.3.3.2.2a2.65,2.65,0,0,1,.5.6,11.7,11.7,0,0,1,2.3,5c.9,3.6.7,7.3,1.5,10.9.1.6.3,1.2.4,1.8,0,.2.1.3.1.5a6.47,6.47,0,0,0,.4,1.3c0,.1.1.3.1.4,4.2,13.6,12.6,20,23.9,28.6a45.24,45.24,0,0,0,.6-7.4,46,46,0,0,0-.8-8.4h0a.37.37,0,0,0-.1-.3h0c-.3-1.3-.6-2.7-.9-4,0-.1,0-.1-.1-.2h0c-.2-.6-.4-1.2-.6-1.9v-.1h0a29.93,29.93,0,0,0-1.5-3.8v-.1h0c-.3-.6-.5-1.2-.8-1.8h0L87.6,24h0c-.3-.6-.7-1.2-1-1.8h0c-.3-.5-.7-1.1-1-1.6h0c0-.1-.1-.1-.1-.2h0c-.7-1.1-1.5-2.1-2.3-3.2,0-.1-.1-.1-.1-.2h0l-1.3-1.6h0c-.4-.5-.9-1-1.3-1.5l-.1-.1h0a15.93,15.93,0,0,0-1.3-1.3h0c.2.4.2.3.1.3h0c-.4-.4-.9-.8-1.3-1.2-.1,0-.1-.1-.2-.1h0c-.5-.4-.9-.8-1.4-1.2h0l-.1-.1h0c-.5-.4-1-.8-1.6-1.2h0A15.26,15.26,0,0,0,73,7.85h0c-1.1-.7-2.2-1.4-3.4-2.1h0a.1.1,0,0,1-.1-.1c-.6-.3-1.1-.6-1.7-.9h0c-.1,0-.1-.1-.2-.1h0c-1.2-.6-2.4-1.1-3.6-1.6-.1,0-.1-.1-.2-.1h0c-.6-.2-1.3-.5-1.9-.7h0l-1.8-.6h-.2a14.62,14.62,0,0,0-2-.5h0c-.6-.1-1.3-.3-1.9-.4h-.1l-2-.3h0A31.92,31.92,0,0,0,50.2,0Zm.5.1Z"/><path class="cls-1" d="M93.3,40.05c-1.7-3.8-1.7-3.8-45.9-19.8C25,12.25,20.9,4.45,37,1c.8-.2,1.6-.3,2.4-.5A47.72,47.72,0,0,1,47-.15a46.79,46.79,0,0,1,46.3,40.2"/></g></svg>