<svg xmlns="http://www.w3.org/2000/svg" viewBox="0 0 93.5 93.5"><defs><style>.cls-1{fill:#a04e9e;}</style></defs><g id="nodes"><path class="cls-1" d="M80.19,68a12.11,12.11,0,0,0-8.81,3.81L47.67,54.46A15,15,0,0,0,49.3,43l20.1-7.36a12.35,12.35,0,1,0-1.05-2.86l-20.1,7.37a15.31,15.31,0,0,0-7.08-7l2.89-7.91a11.93,11.93,0,0,0,2.69.31,12.18,12.18,0,1,0-5.55-1.35L38.32,32a15.31,15.31,0,0,0-3.73-.48,15.09,15.09,0,0,0-6.83,1.64L21.07,22.66a12.32,12.32,0,1,0-2.57,1.63l6.7,10.53a15.15,15.15,0,0,0-.52,23.43L19,66.4a12.27,12.27,0,1,0,2.48,1.75L27.17,60a15.12,15.12,0,0,0,18.7-3.09l23.7,17.37A12.16,12.16,0,1,0,80.19,68Zm0-47.12A9.12,9.12,0,1,1,71.07,30,9.13,9.13,0,0,1,80.19,20.91Zm-42.56-7.6a9.12,9.12,0,1,1,9.12,9.12A9.13,9.13,0,0,1,37.63,13.31Zm-33.44,0a9.12,9.12,0,1,1,9.12,9.12A9.13,9.13,0,0,1,4.19,13.31ZM22.43,77.15A9.12,9.12,0,1,1,13.31,68,9.13,9.13,0,0,1,22.43,77.15ZM34.59,58.91A12.16,12.16,0,1,1,46.75,46.75,12.17,12.17,0,0,1,34.59,58.91Zm45.6,30.4a9.12,9.12,0,1,1,9.12-9.12A9.13,9.13,0,0,1,80.19,89.31Z"/></g></svg>