<svg xmlns="http://www.w3.org/2000/svg" viewBox="0 0 93.5 93.5"><defs><style>.cls-1,.cls-2{fill:#a04e9e;}.cls-1{stroke:#a04e9e;stroke-miterlimit:10;}</style></defs><g id="stable"><path class="cls-1" d="M21.35,46.14H77.79L65.58,60.27a1,1,0,0,0,0,1.25l.47.54a.68.68,0,0,0,1.07,0L80.57,46.5a1,1,0,0,0,0-1.24L66.52,29a.69.69,0,0,0-1.08,0l-.36.41a1,1,0,0,0,0,1.25L76.47,43.84H21.35a.82.82,0,0,0-.76.88v.54A.83.83,0,0,0,21.35,46.14Z"/><rect class="cls-2" x="6.43" y="7.57" width="4.6" height="78.39" rx="2.3"/><rect class="cls-2" x="43.33" y="44.46" width="4.6" height="78.39" rx="2.3" transform="translate(129.28 38.03) rotate(90)"/></g></svg>