<svg xmlns="http://www.w3.org/2000/svg" viewBox="0 0 93.5 93.5"><defs><style>.cls-1{fill:#a04e9e;fill-rule:evenodd;}</style></defs><g id="core"><path class="cls-1" d="M38.65,34.35a12.38,12.38,0,1,1-12.4,12.38,12.38,12.38,0,0,1,12.4-12.38Zm29.63,40V68H51.09a31.73,31.73,0,0,0,4.06-4.45H70.49a2.24,2.24,0,0,1,2.22,2.22v8.52a6.49,6.49,0,1,1-4.43,0ZM66.73,28.69H56.89a32.2,32.2,0,0,0-3.25-4.44H64.52V19.2a6.48,6.48,0,1,1,4.43,0v7.32a2.21,2.21,0,0,1-2.21,2.21ZM91,17.37a6.49,6.49,0,1,0-9.12,5.94v13H60.21a31.8,31.8,0,0,1,.92,4.44h23a2.23,2.23,0,0,0,2.21-2.22V23.61A6.48,6.48,0,0,0,91,17.37Zm-.11,36a6.48,6.48,0,0,0-12.6-2.22H60.76a29.89,29.89,0,0,1-1.25,4.44H78.32a6.48,6.48,0,0,0,12.6-2.22ZM38.19,82.45H35.62a4.42,4.42,0,0,1-4.41-4.4V73.53A27.33,27.33,0,0,1,24,70.81l-3,3a4.42,4.42,0,0,1-6.24,0l-3.64-3.67a4.42,4.42,0,0,1,0-6.23l2.75-2.75a27.19,27.19,0,0,1-3.22-7.44H6.88a4.43,4.43,0,0,1-4.42-4.41V44.13a4.42,4.42,0,0,1,4.42-4.42h3.69a27.34,27.34,0,0,1,3.2-7.53l-2.66-2.65a4.44,4.44,0,0,1,0-6.23l3.67-3.66a4.42,4.42,0,0,1,6.24,0l2.88,2.88a27.75,27.75,0,0,1,7.3-2.79V15.41A4.42,4.42,0,0,1,35.62,11H40.8a4.4,4.4,0,0,1,4.38,4.19V30a17.67,17.67,0,0,0-6.07-1.06H37.27a17.74,17.74,0,1,0-.71,35.47h2.55a17.68,17.68,0,0,0,6.07-1.07v15a4.41,4.41,0,0,1-4.4,4.19Z"/></g></svg>