<svg xmlns="http://www.w3.org/2000/svg" viewBox="0 0 93.5 93.5"><defs><style>.cls-1,.cls-2{fill:none;stroke:#a04e9e;stroke-miterlimit:10;}.cls-1{stroke-width:2px;}.cls-2{stroke-width:3px;}</style></defs><g id="jupiter"><circle class="cls-1" cx="12.54" cy="18.55" r="2.42"/><circle class="cls-1" cx="20.95" cy="80.14" r="5.55"/><path class="cls-2" d="M25.78,61.48A30,30,0,0,0,81.22,45.55a29.29,29.29,0,0,0-.15-3c-6.21,4.48-15.64,9.18-26.63,12.92C43.61,59.18,33.41,61.2,25.78,61.48Z"/><path class="cls-2" d="M75.43,27.83A30,30,0,0,0,21.2,45.55c0,.21,0,.41,0,.61"/><path class="cls-2" d="M12.77,57.57c1,2.9,5.87,4.17,13,3.91a29.88,29.88,0,0,1-4.56-15.32C15.06,50.45,11.75,54.59,12.77,57.57Z"/><path class="cls-2" d="M88.73,31.72c-1-2.93-6-4.2-13.3-3.89a29.87,29.87,0,0,1,5.64,14.74C86.72,38.48,89.7,34.58,88.73,31.72Z"/><circle class="cls-1" cx="76.32" cy="9.64" r="4.18"/></g></svg>