<svg xmlns="http://www.w3.org/2000/svg" viewBox="0 0 93.5 93.5"><defs><style>.cls-1{fill:#a04e9e;}</style></defs><g id="search"><path class="cls-1" d="M86.89,67.36,74,54.45A37.1,37.1,0,1,0,55.33,73.88L67.85,86.4a13.46,13.46,0,1,0,19-19Zm-5.34,13.7a5.9,5.9,0,0,1-8.35,0L56.6,64.46a29.52,29.52,0,1,1,8.15-8.55l16.8,16.8A5.91,5.91,0,0,1,81.55,81.06Z"/><path class="cls-1" d="M39.74,19.12A21.12,21.12,0,1,0,60.85,40.23,21.13,21.13,0,0,0,39.74,19.12Zm0,34.66A13.55,13.55,0,1,1,53.29,40.23,13.56,13.56,0,0,1,39.74,53.78Z"/></g></svg>