<svg xmlns="http://www.w3.org/2000/svg" viewBox="0 0 93.5 93.5"><defs><style>.cls-1{fill:#a04e9e;}</style></defs><g id="validator"><path class="cls-1" d="M11.74,72.78V20.69a5.49,5.49,0,0,1,5.49-5.49H73.42l3.38-3.39a9.82,9.82,0,0,0-1.34-.11H17.23a9,9,0,0,0-9,9V72.78Z"/><path class="cls-1" d="M85.54,23.16l-3.32,3.32v45.9a5.49,5.49,0,0,1-5.49,5.49H23.65v3.5H76.73a9,9,0,0,0,9-9V24.94A8.74,8.74,0,0,0,85.54,23.16Z"/><path class="cls-1" d="M66.45,81.19l-3.32-3.32H17.23a5.49,5.49,0,0,1-5.49-5.49V19.3H8.24V72.38a9,9,0,0,0,9,9H64.66A8.84,8.84,0,0,0,66.45,81.19Z"/><polyline class="cls-1" points="85.04 9.76 37.68 57.13 27.19 46.64 23.65 52.62 38.2 67.16 89.03 13.88 86.91 11.75"/></g></svg>