<svg xmlns="http://www.w3.org/2000/svg" viewBox="0 0 93.5 93.5"><defs><style>.cls-1{fill:#a04e9e;}</style></defs><g id="app-2" data-name="app"><path class="cls-1" d="M84.56,1.38H8.94A7.57,7.57,0,0,0,1.38,8.94V84.56a7.57,7.57,0,0,0,7.56,7.56H84.56a7.57,7.57,0,0,0,7.56-7.56V8.94A7.57,7.57,0,0,0,84.56,1.38ZM89.1,84.56a4.54,4.54,0,0,1-4.54,4.54H8.94A4.54,4.54,0,0,1,4.4,84.56V16.5H89.1V84.56Zm0-71.08H4.4V8.94A4.54,4.54,0,0,1,8.94,4.4H84.56A4.54,4.54,0,0,1,89.1,8.94v4.54Z"/><path class="cls-1" d="M12,7.43H10.45a1.51,1.51,0,0,0,0,3H12a1.51,1.51,0,1,0,0-3Z"/><path class="cls-1" d="M18.59,7.55a1.36,1.36,0,0,0-1.15,0,1.58,1.58,0,0,0-.5.32,1.53,1.53,0,0,0,0,2.14,1.77,1.77,0,0,0,.5.32,1.44,1.44,0,0,0,1.15,0,1.77,1.77,0,0,0,.5-.32,1.53,1.53,0,0,0,0-2.14A1.58,1.58,0,0,0,18.59,7.55Z"/><path class="cls-1" d="M24.64,7.53A1.51,1.51,0,0,0,23,7.87a1.8,1.8,0,0,0-.32.49,1.44,1.44,0,0,0,0,1.15A1.71,1.71,0,0,0,23,10a1.53,1.53,0,0,0,2.15,0,1.51,1.51,0,0,0,.31-.5,1.25,1.25,0,0,0,.13-.57A1.54,1.54,0,0,0,24.64,7.53Z"/><path class="cls-1" d="M83.05,7.43H31.63a1.51,1.51,0,1,0,0,3H83.05a1.51,1.51,0,1,0,0-3Z"/><path class="cls-1" d="M24.6,73.4a1.84,1.84,0,0,0,.22.17,30.11,30.11,0,0,0,43.88,0,.8.8,0,0,0,.21-.15,1,1,0,0,0,.13-.22,30.06,30.06,0,0,0,0-40.76h0a1.59,1.59,0,0,0-.13-.22L68.68,32a30.11,30.11,0,0,0-43.86,0,1.84,1.84,0,0,0-.22.17,1,1,0,0,0-.13.22,30.06,30.06,0,0,0,0,40.76A1,1,0,0,0,24.6,73.4ZM55,78.73a27.83,27.83,0,0,0,5.15-9.53h0a27.4,27.4,0,0,1,5.34,3.29A27.16,27.16,0,0,1,55,78.73Zm12.58-8.44a30.75,30.75,0,0,0-6.57-4,54.1,54.1,0,0,0,1.58-12H73.9A27.15,27.15,0,0,1,67.58,70.29Zm6.32-19H62.59A54.1,54.1,0,0,0,61,39.34a30.35,30.35,0,0,0,6.57-4A27.15,27.15,0,0,1,73.9,51.29ZM65.49,33.11a27.84,27.84,0,0,1-5.34,3.28A27.68,27.68,0,0,0,55,26.86,27.18,27.18,0,0,1,65.49,33.11ZM48.26,25.79c3.71,1,7,5.43,9.05,11.74a32.36,32.36,0,0,1-9.05,1.72Zm0,16.48a34.68,34.68,0,0,0,9.89-1.81,51.36,51.36,0,0,1,1.42,10.83H48.26Zm0,12H59.57a51.36,51.36,0,0,1-1.42,10.83,35,35,0,0,0-9.89-1.82Zm0,12a32,32,0,0,1,9.05,1.73c-2.06,6.3-5.34,10.76-9.05,11.73ZM28,72.48a27.84,27.84,0,0,1,5.34-3.28h0a27.68,27.68,0,0,0,5.15,9.53A27.18,27.18,0,0,1,28,72.48Zm17.23,7.33c-3.71-1-7-5.43-9.05-11.74a32.36,32.36,0,0,1,9.05-1.72V79.81Zm0-16.49a35,35,0,0,0-9.89,1.82,51.36,51.36,0,0,1-1.42-10.83H45.24Zm0-12H33.93a51.36,51.36,0,0,1,1.42-10.83,34.68,34.68,0,0,0,9.89,1.81Zm0-25.5V39.25a32,32,0,0,1-9.05-1.73C38.25,31.21,41.53,26.76,45.24,25.79ZM38.5,26.86a27.68,27.68,0,0,0-5.15,9.53h0A27.4,27.4,0,0,1,28,33.1,27.16,27.16,0,0,1,38.5,26.86ZM25.92,35.31a30.75,30.75,0,0,0,6.57,4,54.1,54.1,0,0,0-1.58,11.95H19.6A27.08,27.08,0,0,1,25.92,35.31Zm5,19a54.1,54.1,0,0,0,1.58,12,30.35,30.35,0,0,0-6.57,4,27.15,27.15,0,0,1-6.32-16Z"/></g></svg>