<svg xmlns="http://www.w3.org/2000/svg" viewBox="0 0 93.5 93.5"><defs><style>.cls-1{fill:#a04e9e;}.cls-2{fill:#72297e;}</style></defs><g id="LocalTerra"><path class="cls-1" d="M48.41,6.18A21.41,21.41,0,0,1,67,38.31L48.41,70.44,29.86,38.31A21.42,21.42,0,0,1,48.41,6.18Zm0-2.38a23.78,23.78,0,0,0-20.6,35.7l20.6,35.7L69,39.5A23.78,23.78,0,0,0,48.41,3.8Z"/><g id="layer1"><path class="cls-1" d="M33.16,67.64a85.08,85.08,0,0,0-12.66,2.3,31.68,31.68,0,0,0-8.62,3.5c-2.15,1.39-3.56,3.08-3.56,5S9.73,82,11.88,83.35a31.67,31.67,0,0,0,8.62,3.51c7.08,1.92,16.62,3.07,27.15,3.07s20.06-1.15,27.14-3.07a31.61,31.61,0,0,0,8.63-3.51C85.57,82,87,80.27,87,78.4s-1.4-3.57-3.55-5a31.62,31.62,0,0,0-8.63-3.5,84.69,84.69,0,0,0-12.65-2.3v2.74a78.71,78.71,0,0,1,11.24,2.07,28,28,0,0,1,7.41,3c1.63,1.06,2.31,2,2.31,3s-.68,1.92-2.31,3a27.66,27.66,0,0,1-7.41,3c-6.45,1.76-15.61,2.89-25.73,2.89S28.37,86.1,21.91,84.34a27.43,27.43,0,0,1-7.4-3c-1.64-1.05-2.32-2-2.32-3s.68-1.92,2.32-3a27.76,27.76,0,0,1,7.4-3,78.61,78.61,0,0,1,11.25-2.07Z"/></g><path class="cls-1" d="M47.92,47.18a19.66,19.66,0,0,1,0-39.28V11c-8.66.32-15.31,8.27-15.31,16.5S39.32,43.71,47.92,44Z"/><path class="cls-1" d="M47.92,42.67c-5.7-.25-10.14-7.09-10.14-15.13s4.47-14.88,10.14-15.13v2.41C43.27,15.07,40,21.2,40,27.54S43.3,40,47.92,40.25Z"/><path class="cls-2" d="M49,40.25c4.65-.29,7.88-6.38,7.88-12.71S53.6,15.16,49,14.82V12.41c5.64.25,10.11,7.08,10.11,15.13S54.61,42.42,49,42.67Z"/><path class="cls-2" d="M49,44c8.65-.38,15.25-8.28,15.25-16.5S57.6,11.47,49,11V7.9a19.66,19.66,0,0,1,0,39.28Z"/></g></svg>