<svg xmlns="http://www.w3.org/2000/svg" viewBox="0 0 93.5 93.5"><defs><style>.cls-1,.cls-2{fill:#a04e9e;}.cls-1{fill-rule:evenodd;}.cls-3{fill:none;stroke:#a04e9e;stroke-miterlimit:10;stroke-width:3px;}</style></defs><g id="manage_validator" data-name="manage validator"><path class="cls-1" d="M29.05,79.55C22.91,74.74,26.58,69.1,21,66a6.9,6.9,0,0,0-5.68.36C22.48,68.9,18.22,77.66,12,72c-.2,4.12,1.8,6.48,5.49,6.89,2.55.52,6.16,1.07,8.85,4.82l.08.12"/><path class="cls-2" d="M22.15,60.11V15.41a4.71,4.71,0,0,1,4.71-4.71H75.07L78,7.79a8.77,8.77,0,0,0-1.15-.09h-50a7.72,7.72,0,0,0-7.71,7.71v44.7Z"/><path class="cls-2" d="M85.48,17.53l-2.85,2.85V59.77a4.72,4.72,0,0,1-4.71,4.71H32.38v3H77.92a7.72,7.72,0,0,0,7.71-7.71V19.06A7.78,7.78,0,0,0,85.48,17.53Z"/><polyline class="cls-2" points="85.05 6.04 44.41 46.68 35.41 37.68 32.38 42.81 44.85 55.29 88.47 9.57 86.65 7.74"/><circle class="cls-3" cx="20.52" cy="74.05" r="14.45"/></g></svg>