<svg xmlns="http://www.w3.org/2000/svg" viewBox="0 0 93.5 93.5"><defs><style>.cls-1{fill:none;stroke:#a04e9e;stroke-miterlimit:10;stroke-width:3px;}</style></defs><g id="LocalTerra"><path class="cls-1" d="M2.7,73.7H90.82a0,0,0,0,1,0,0v6.14a1.89,1.89,0,0,1-1.89,1.89H4.59A1.89,1.89,0,0,1,2.7,79.84V73.7A0,0,0,0,1,2.7,73.7Z"/><path class="cls-1" d="M8,69.58,7.77,20.84c0-1.47.91-2.66,2-2.66h73.9a2.42,2.42,0,0,1,2.05,2.66L86,69.58"/><polyline class="cls-1" points="19.11 56.06 36.34 36.14 44.04 49.62 49.76 44.61 57.82 50.93 74.58 35.13"/></g></svg>