<svg xmlns="http://www.w3.org/2000/svg" viewBox="0 0 93.5 93.5"><defs><style>.cls-1{fill:#a04e9e;fill-rule:evenodd;}</style></defs><g id="py"><path class="cls-1" d="M21.74,9.93A11.9,11.9,0,0,0,12.3,6.67c10.25,9.12-1.89,20.9-8.64,7.19-2.77,6.78.12,13,5.86,16.24,2.71,1.52,4.14,2.4,5.13,3.62A9.18,9.18,0,0,1,16,36.05l2.56,6.6H7.81a1.78,1.78,0,0,0-1.69,1.86h0V77.2c0,7.41,5.52,13.42,12.32,13.44H73.5c6.79,0,12.3-6,12.32-13.44V44.52a1.78,1.78,0,0,0-1.7-1.85H67.71l9.57-17.58-6.86-4.31-12,21.89H50.79V40.38a.47.47,0,0,0-.09-.28c-.36-.48-.64-.8-.88-1.12h0c-.54-.69-.82-1-.82-1.26s.27-.6.8-1.32c.22-.29.48-.64.79-1.08a.51.51,0,0,0,.1-.29V32.5a.42.42,0,0,0-.41-.44H46.73l.07-17.65,2.14-4.09a2.36,2.36,0,0,0,.33-1.23v-4a2.16,2.16,0,0,0-2.12-2.2h-5a2.18,2.18,0,0,0-2,2.3h0l.06,4.42a2.34,2.34,0,0,0,.38,1.27l2,3.13-.07,18.08h-4.2a.42.42,0,0,0-.4.44h0V35a.43.43,0,0,0,.1.29c.34.42.64.8.89,1.06C39.6,37.21,40,37.63,40,38s-.3.69-.87,1.48c-.28.39-.64.88-1.05,1.49a.38.38,0,0,0-.09.28v1.48H28.38l-4-10.31a10.88,10.88,0,0,1-.82-3,12.6,12.6,0,0,1,.21-3c1-6.21,2.93-11.38-2-16.39ZM9.51,54H82.44V46.37H9.51Zm72.93,3.7H72.28V63.9A2.44,2.44,0,0,1,70,66.44H61.83a2.45,2.45,0,0,1-2.32-2.54V57.68H33.23V63.9a2.45,2.45,0,0,1-2.32,2.54H22.78a2.45,2.45,0,0,1-2.33-2.54V57.68H9.51V77.2c0,5.37,4,9.72,8.93,9.75H73.5c4.93,0,8.92-4.37,8.94-9.75ZM57.75,17.94a11.16,11.16,0,0,1,3.88-2.05,6.84,6.84,0,0,1,5.76.67L82.32,26l-.9,1.71,5.68,3.61,5.51-10.39-5.67-3.6-1,1.88L71.07,9.83a7,7,0,0,0-5.86-1.1c-3.1.91-5.6,4-7.49,9.21Z"/></g></svg>