<svg xmlns="http://www.w3.org/2000/svg" viewBox="0 0 93.5 93.5"><defs><style>.cls-1{fill:#a04e9e;}</style></defs><g id="manage_validator" data-name="manage validator"><path class="cls-1" d="M90,13,61.38,7.9a2.15,2.15,0,0,0-.62,0l-28.33,5L4.11,7.9A1.77,1.77,0,0,0,2,9.66V79.05a1.78,1.78,0,0,0,1.47,1.76l28.63,5.06a1.44,1.44,0,0,0,.62,0l28.33-5,28.32,5a1.63,1.63,0,0,0,.31,0,1.78,1.78,0,0,0,1.78-1.78V14.72A1.78,1.78,0,0,0,90,13ZM9.18,78.2l-3.6-.64v-39l1.68-1.68L19.72,49.29l-5.06,5.07a1.78,1.78,0,0,0,2.52,2.52L30.65,43.41v20l-5.87-6.11a1.78,1.78,0,0,0-2.57,2.47l2.63,2.74L9.22,78.15ZM30.65,82,13.46,79,27.31,65.11l3.34,3.47Zm0-43.62-8.41,8.4L9.79,34.32l7.55-7.55,7.92,7.92a1.78,1.78,0,1,0,2.52-2.52l-7.92-7.92,2.66-2.66a1.77,1.77,0,0,0,0-2.52,1.79,1.79,0,0,0-2.52,0L5.58,33.5V11.78l25.07,4.44ZM59.28,77.56,34.22,82V68.7l10-5.76a1.78,1.78,0,1,0-1.77-3.09l-8.26,4.74V40.19l9.49-5.43L59.28,64.9Zm0-20.42L46.8,33l12.48-7.15Zm0-35.4L34.22,36.08V16.22l25.06-4.44ZM87.92,82,70.07,78.84,82.59,66.33a1.79,1.79,0,1,0-2.53-2.52L66,77.89a1.45,1.45,0,0,0-.17.19l-3-.52V11.78l25.07,4.44V35.81l-16,16.06a1.78,1.78,0,0,0,1.26,3,1.82,1.82,0,0,0,1.26-.52l1.5-1.51,12,12V82Zm0-41.14v19l-9.51-9.51Z"/><path class="cls-1" d="M75.46,44.38a1.81,1.81,0,0,0,1.42-.7c.91-1.19,8.9-11.78,8.9-16.95a10.32,10.32,0,0,0-20.64,0c0,5.17,8,15.76,8.91,17A1.77,1.77,0,0,0,75.46,44.38Zm0-24.4a6.76,6.76,0,0,1,6.76,6.75c0,2.58-3.71,8.61-6.76,12.87-3-4.26-6.76-10.29-6.76-12.87A6.76,6.76,0,0,1,75.46,20Z"/><path class="cls-1" d="M80.44,26.73a5,5,0,1,0-5,5A5,5,0,0,0,80.44,26.73Zm-5,1.42a1.42,1.42,0,1,1,1.41-1.42A1.42,1.42,0,0,1,75.46,28.15Z"/><path class="cls-1" d="M10.74,58.28,9,60.06a1.79,1.79,0,0,0,1.26,3,1.76,1.76,0,0,0,1.26-.53l1.79-1.78a1.78,1.78,0,1,0-2.52-2.52Z"/><path class="cls-1" d="M47.82,60.62a1.8,1.8,0,0,0,.89-.24L51.2,59a1.78,1.78,0,1,0-1.77-3.09l-2.5,1.43a1.78,1.78,0,0,0,.89,3.33Z"/><path class="cls-1" d="M68,55.79l-1.61,1.6a1.78,1.78,0,0,0,1.26,3,1.76,1.76,0,0,0,1.26-.52l1.61-1.6a1.79,1.79,0,0,0,0-2.52A1.77,1.77,0,0,0,68,55.79Z"/></g></svg>