<svg xmlns="http://www.w3.org/2000/svg" viewBox="0 0 93.5 93.5"><defs><style>.cls-1{fill:#a04e9e;}.cls-2{fill:#72297e;}</style></defs><g id="oracle_feeder" data-name="oracle feeder"><path class="cls-1" d="M47.54,70.82A24.29,24.29,0,1,1,71.82,46.54,24.31,24.31,0,0,1,47.54,70.82Zm0-45.53A21.25,21.25,0,1,0,68.79,46.54,21.27,21.27,0,0,0,47.54,25.29Z"/><path class="cls-1" d="M47.54,23.77A1.52,1.52,0,0,1,46,22.25V8.59a1.52,1.52,0,1,1,3,0V22.25A1.52,1.52,0,0,1,47.54,23.77Z"/><path class="cls-1" d="M30.36,30.88a1.55,1.55,0,0,1-1.07-.44l-9.22-9.22a1.52,1.52,0,0,1,2.15-2.15l9.22,9.22a1.53,1.53,0,0,1,0,2.15A1.55,1.55,0,0,1,30.36,30.88Z"/><path class="cls-1" d="M18.56,22.11a4.55,4.55,0,0,1-3.22-7.77,4.66,4.66,0,0,1,6.44,0h0a4.55,4.55,0,0,1-3.22,7.77Zm0-6.07a1.52,1.52,0,0,0-1.08,2.59,1.55,1.55,0,0,0,2.15,0,1.53,1.53,0,0,0,0-2.15h0A1.54,1.54,0,0,0,18.56,16Z"/><path class="cls-1" d="M73.92,74.44A1.55,1.55,0,0,1,72.85,74l-9.21-9.22a1.51,1.51,0,0,1,2.14-2.14L75,71.85A1.53,1.53,0,0,1,75,74,1.55,1.55,0,0,1,73.92,74.44Z"/><path class="cls-1" d="M76.51,80.07A4.55,4.55,0,0,1,73.3,72.3a4.65,4.65,0,0,1,6.43,0h0a4.56,4.56,0,0,1-3.23,7.77Zm0-6.07a1.5,1.5,0,0,0-1.07.44,1.53,1.53,0,0,0,0,2.15,1.57,1.57,0,0,0,2.15,0,1.53,1.53,0,0,0,0-2.15h0A1.5,1.5,0,0,0,76.51,74Z"/><path class="cls-1" d="M64.71,30.88a1.52,1.52,0,0,1-1.07-2.59l9.21-9.22A1.52,1.52,0,0,1,75,21.22l-9.22,9.22A1.51,1.51,0,0,1,64.71,30.88Z"/><path class="cls-1" d="M76.51,22.11a4.55,4.55,0,0,1-3.21-7.77,4.66,4.66,0,0,1,6.44,0,4.57,4.57,0,0,1,0,6.44h0A4.51,4.51,0,0,1,76.51,22.11Zm0-6.07a1.52,1.52,0,1,0,1.08,2.59h0a1.53,1.53,0,0,0,0-2.15A1.55,1.55,0,0,0,76.51,16Z"/><path class="cls-1" d="M21.15,74.44A1.55,1.55,0,0,1,20.07,74a1.53,1.53,0,0,1,0-2.15l9.22-9.21a1.52,1.52,0,1,1,2.15,2.14L22.22,74A1.53,1.53,0,0,1,21.15,74.44Z"/><path class="cls-1" d="M18.56,80.07a4.56,4.56,0,0,1-3.22-7.77,4.66,4.66,0,0,1,6.44,0,4.56,4.56,0,0,1,0,6.43h0A4.54,4.54,0,0,1,18.56,80.07Zm0-6.07a1.46,1.46,0,0,0-1.07.44,1.52,1.52,0,0,0,0,2.15,1.57,1.57,0,0,0,2.15,0h0a1.53,1.53,0,0,0,0-2.15A1.5,1.5,0,0,0,18.56,74Z"/><path class="cls-1" d="M47.54,10.11a4.56,4.56,0,1,1,4.55-4.56A4.57,4.57,0,0,1,47.54,10.11Zm0-6.07a1.52,1.52,0,1,0,1.51,1.51A1.52,1.52,0,0,0,47.54,4Z"/><path class="cls-1" d="M47.54,86A1.52,1.52,0,0,1,46,84.48V70.82a1.52,1.52,0,1,1,3,0V84.48A1.52,1.52,0,0,1,47.54,86Z"/><path class="cls-1" d="M47.54,92.07a4.56,4.56,0,1,1,4.55-4.55A4.56,4.56,0,0,1,47.54,92.07Zm0-6.07a1.52,1.52,0,1,0,1.51,1.52A1.52,1.52,0,0,0,47.54,86Z"/><path class="cls-1" d="M23.25,48.05H9.59a1.52,1.52,0,1,1,0-3H23.25a1.52,1.52,0,1,1,0,3Z"/><path class="cls-1" d="M6.55,51.09a4.56,4.56,0,1,1,4.56-4.55A4.55,4.55,0,0,1,6.55,51.09Zm0-6.07a1.52,1.52,0,1,0,1.52,1.52A1.52,1.52,0,0,0,6.55,45Z"/><path class="cls-1" d="M85.48,48.05H71.82a1.52,1.52,0,1,1,0-3H85.48a1.52,1.52,0,1,1,0,3Z"/><path class="cls-1" d="M88.52,51.09a4.56,4.56,0,1,1,4.55-4.55A4.56,4.56,0,0,1,88.52,51.09Zm0-6.07A1.52,1.52,0,1,0,90,46.54,1.52,1.52,0,0,0,88.52,45Z"/><path class="cls-1" d="M47.35,62.86a16.12,16.12,0,0,1,0-32.22v2.58c-7.1.26-12.56,6.79-12.56,13.53S40.3,60,47.35,60.28Z"/><path class="cls-1" d="M47.35,59.16C42.68,59,39,53.35,39,46.75s3.67-12.2,8.32-12.41v2c-3.81.21-6.5,5.23-6.5,10.43S43.56,57,47.35,57.18Z"/><path class="cls-2" d="M48.19,57.18C52,56.94,54.66,52,54.66,46.75S52,36.6,48.19,36.32v-2c4.63.21,8.3,5.81,8.3,12.41S52.84,59,48.19,59.16Z"/><path class="cls-2" d="M48.19,60.28c7.1-.31,12.52-6.79,12.52-13.53S55.29,33.57,48.19,33.22V30.64a16.12,16.12,0,0,1,0,32.22Z"/></g></svg>