<svg xmlns="http://www.w3.org/2000/svg" viewBox="0 0 93.5 93.5"><defs><style>.cls-1{fill:#a04e9e;}.cls-2{fill:#72297e;}</style></defs><g id="staking"><path class="cls-1" d="M34.54,77.62c-14.19,0-29.28-3.78-29.28-10.78V57.59a1.54,1.54,0,0,1,3.08,0v9.25c0,3.21,10,7.7,26.2,7.7a79,79,0,0,0,8.69-.47,1.54,1.54,0,0,1,.34,3.06A80.14,80.14,0,0,1,34.54,77.62Z"/><path class="cls-1" d="M34.54,68.38c-14.19,0-29.28-3.78-29.28-10.79V48.34a1.54,1.54,0,1,1,3.08,0v9.25c0,3.22,10,7.71,26.2,7.71,2.36,0,4.7-.11,7-.3a1.52,1.52,0,0,1,1.67,1.4,1.54,1.54,0,0,1-1.4,1.67C39.42,68.27,37,68.38,34.54,68.38Z"/><path class="cls-1" d="M62.28,46.8a1.54,1.54,0,0,1-1.54-1.54V39.1a1.54,1.54,0,1,1,3.08,0v6.16A1.54,1.54,0,0,1,62.28,46.8Z"/><path class="cls-1" d="M34.54,59.13c-14.19,0-29.28-3.78-29.28-10.79V39.1a1.54,1.54,0,0,1,3.08,0v9.24c0,3.22,10,7.71,26.2,7.71a78.66,78.66,0,0,0,9.87-.61,1.54,1.54,0,1,1,.39,3.05A79,79,0,0,1,34.54,59.13Z"/><path class="cls-1" d="M34.54,49.89c-14.19,0-29.28-3.78-29.28-10.79V29.85a1.54,1.54,0,1,1,3.08,0V39.1c0,3.22,10,7.7,26.2,7.7s26.2-4.48,26.2-7.7V29.85a1.54,1.54,0,1,1,3.08,0V39.1C63.82,46.11,48.74,49.89,34.54,49.89Z"/><path class="cls-1" d="M34.54,40.64c-14.19,0-29.28-3.78-29.28-10.79V20.61a1.54,1.54,0,0,1,3.08,0v9.24c0,3.22,10,7.71,26.2,7.71s26.2-4.49,26.2-7.71V20.61a1.54,1.54,0,0,1,3.08,0v9.24C63.82,36.86,48.74,40.64,34.54,40.64Z"/><path class="cls-1" d="M34.54,31.39c-14.19,0-29.28-3.78-29.28-10.78V11.36a1.54,1.54,0,0,1,3.08,0v9.25c0,3.21,10,7.7,26.2,7.7s26.2-4.49,26.2-7.7V11.36a1.54,1.54,0,0,1,3.08,0v9.25C63.82,27.61,48.74,31.39,34.54,31.39Z"/><path class="cls-1" d="M34.54,22.15c-14.19,0-29.28-3.78-29.28-10.79S20.35.57,34.54.57,63.82,4.35,63.82,11.36,48.74,22.15,34.54,22.15Zm0-18.49c-16.23,0-26.2,4.48-26.2,7.7s10,7.71,26.2,7.71,26.2-4.49,26.2-7.71S50.77,3.66,34.54,3.66Z"/><path class="cls-1" d="M65.36,93A24.66,24.66,0,1,1,90,68.38,24.69,24.69,0,0,1,65.36,93Zm0-46.23A21.58,21.58,0,1,0,86.93,68.38,21.59,21.59,0,0,0,65.36,46.8Z"/><path class="cls-1" d="M65,84.54a16.17,16.17,0,0,1,0-32.32V54.8c-7.12.26-12.6,6.81-12.6,13.58S57.88,81.69,65,82Z"/><path class="cls-1" d="M65,80.83c-4.69-.21-8.35-5.83-8.35-12.45S60.3,56.13,65,55.93v2c-3.83.2-6.52,5.24-6.52,10.46S61.16,78.63,65,78.84Z"/><path class="cls-2" d="M65.81,78.84c3.82-.24,6.48-5.25,6.48-10.46s-2.66-10.19-6.48-10.46v-2c4.64.2,8.32,5.83,8.32,12.45s-3.66,12.24-8.32,12.45Z"/><path class="cls-2" d="M65.81,82c7.12-.31,12.55-6.81,12.55-13.58S72.93,55.15,65.81,54.8V52.22a16.17,16.17,0,0,1,0,32.32Z"/></g></svg>