<svg xmlns="http://www.w3.org/2000/svg" viewBox="0 0 93.5 93.5"><defs><style>.cls-1{fill:#a04e9e;}</style></defs><g id="book"><path class="cls-1" d="M81.74,86.08H13a9.56,9.56,0,0,1-9.56-9.55V27.47A9.57,9.57,0,0,1,13,17.91H81.74a9.57,9.57,0,0,1,9.56,9.56V76.52A9.57,9.57,0,0,1,81.74,86.08ZM13,21.49a6,6,0,0,0-6,6V76.52a6,6,0,0,0,6,6H81.74a6,6,0,0,0,6-6V27.47a6,6,0,0,0-6-6Z"/><path class="cls-1" d="M81.74,79H13a9.57,9.57,0,0,1-9.56-9.56V20.39A9.57,9.57,0,0,1,13,10.83H81.74a9.57,9.57,0,0,1,9.56,9.56V69.45A9.57,9.57,0,0,1,81.74,79ZM13,14.42a6,6,0,0,0-6,6V69.45a6,6,0,0,0,6,6H81.74a6,6,0,0,0,6-6V20.39a6,6,0,0,0-6-6Z"/><path class="cls-1" d="M89.51,66.35H68.87a11.67,11.67,0,0,1,0-23.33H89.51a1.8,1.8,0,0,1,1.79,1.8V64.55A1.79,1.79,0,0,1,89.51,66.35ZM68.87,46.61a8.08,8.08,0,0,0,0,16.15H87.71V46.61Z"/><path class="cls-1" d="M68.87,61a6.28,6.28,0,1,1,6.28-6.28A6.28,6.28,0,0,1,68.87,61Zm0-9a2.7,2.7,0,1,0,2.7,2.7A2.7,2.7,0,0,0,68.87,52Z"/><path class="cls-1" d="M8.77,30.47H5.18a1.8,1.8,0,0,1,0-3.59H8.77a1.8,1.8,0,0,1,0,3.59Z"/><path class="cls-1" d="M78.91,30.47h-7a1.8,1.8,0,0,1,0-3.59h7a1.8,1.8,0,0,1,0,3.59Zm-14,0h-7a1.8,1.8,0,0,1,0-3.59h7a1.8,1.8,0,0,1,0,3.59Zm-14,0h-7a1.8,1.8,0,1,1,0-3.59h7a1.8,1.8,0,1,1,0,3.59Zm-14,0h-7a1.8,1.8,0,0,1,0-3.59h7a1.8,1.8,0,1,1,0,3.59Zm-14,0h-7a1.8,1.8,0,0,1,0-3.59h7a1.8,1.8,0,0,1,0,3.59Z"/><path class="cls-1" d="M89.51,30.47H85.92a1.8,1.8,0,0,1,0-3.59h3.59a1.8,1.8,0,0,1,0,3.59Z"/></g></svg>