<svg xmlns="http://www.w3.org/2000/svg" viewBox="0 0 93.5 93.5"><defs><style>.cls-1{fill:#a04e9e;stroke:#a04e9e;stroke-miterlimit:10;}</style></defs><g id="swap-2" data-name="swap"><path class="cls-1" d="M21.35,59.14H77.79L65.58,73.27a1,1,0,0,0,0,1.25l.47.54a.68.68,0,0,0,1.07,0L80.57,59.5a1,1,0,0,0,0-1.24L66.52,42a.69.69,0,0,0-1.08,0l-.36.41a1,1,0,0,0,0,1.25L76.47,56.84H21.35a.82.82,0,0,0-.76.88v.54A.83.83,0,0,0,21.35,59.14Z"/><path class="cls-1" d="M77.86,34.07H21.42L33.63,19.94a1,1,0,0,0,0-1.25l-.46-.54a.69.69,0,0,0-1.08,0L18.64,33.7a1,1,0,0,0,0,1.25L32.7,51.21a.69.69,0,0,0,1.07,0l.36-.41a1,1,0,0,0,0-1.25L22.74,36.37H77.86a.82.82,0,0,0,.76-.88V35A.83.83,0,0,0,77.86,34.07Z"/></g></svg>