<svg xmlns="http://www.w3.org/2000/svg" viewBox="0 0 93.5 93.5"><defs><style>.cls-1{fill:#a04e9e;}</style></defs><g id="docs"><path class="cls-1" d="M19.12,88.86H80.91a.44.44,0,0,0,.45-.44V76.59H19.12a5.78,5.78,0,0,0-5.69,3.57,6.84,6.84,0,0,0-.5,2.57A6,6,0,0,0,19.12,88.86Zm-2.79-3.7H79v1.38H17a7.61,7.61,0,0,1-.66-1.38ZM17,78.91a8.44,8.44,0,0,0-.66,1.39H79V78.91ZM16,82a6.46,6.46,0,0,0,0,1.39H79V82ZM83.46,91A3.59,3.59,0,0,1,80.91,92H19.12C12,92,9,85.83,9,79.59V15.48a13.59,13.59,0,0,1,4-9.69,15.13,15.13,0,0,1,9.92-4.32H82.7a1.58,1.58,0,0,1,1.58,1.58v72a2.63,2.63,0,0,1,.25,1.12V88.42A3.59,3.59,0,0,1,83.47,91ZM81.12,73.42V4.64H26.76V73.42Zm-57.53,0V4.64H23A11.84,11.84,0,0,0,15.24,8a10.49,10.49,0,0,0-3.1,7.45V76.32a9.06,9.06,0,0,1,7-2.9Z"/></g></svg>