<svg xmlns="http://www.w3.org/2000/svg" viewBox="0 0 93.5 93.5"><defs><style>.cls-1{fill:#a04e9e;}</style></defs><g id="validator"><path class="cls-1" d="M11.29,74.57V22.48A5.49,5.49,0,0,1,16.78,17H73l3.38-3.39A9.82,9.82,0,0,0,75,13.49H16.78a9,9,0,0,0-9,9V74.57Z"/><path class="cls-1" d="M85.09,25l-3.32,3.31V74.17a5.49,5.49,0,0,1-5.49,5.49H23.2v3.5H76.28a9,9,0,0,0,9-9V26.73A8.67,8.67,0,0,0,85.09,25Z"/><path class="cls-1" d="M66,83l-3.32-3.32H16.78a5.49,5.49,0,0,1-5.49-5.49V21.09H7.79V74.17a9,9,0,0,0,9,9H64.21A9.61,9.61,0,0,0,66,83Z"/><polyline class="cls-1" points="84.59 11.55 37.23 58.92 26.74 48.43 23.2 54.41 37.75 68.95 88.58 15.67 86.45 13.54"/></g></svg>