<svg xmlns="http://www.w3.org/2000/svg" viewBox="0 0 93.5 93.5"><defs><style>.cls-1{fill:#a04e9e;}</style></defs><g id="satelite"><path class="cls-1" d="M42.38,27.13a3.11,3.11,0,0,0,0-4.41L20.58.92a3.11,3.11,0,0,0-4.41,0L.91,16.17a3.13,3.13,0,0,0,0,4.41L22.72,42.39a3.12,3.12,0,0,0,4.4,0l3.26-3.26,2.16,2.17-4.33,4.33a4.66,4.66,0,0,0-.08,6.52,15.36,15.36,0,0,0-11.66,3.07A3.11,3.11,0,0,0,16,59.59a3.22,3.22,0,0,0,.24.28l5.44,5.43L18,69a6.19,6.19,0,1,0,6.57,6.57l3.67-3.68,5.37,5.37a3.15,3.15,0,0,0,2.21.91H36A3.05,3.05,0,0,0,38.21,77a15.41,15.41,0,0,0,3.08-11.66,4.69,4.69,0,0,0,6.59,0L52.21,61l2.16,2.16-3.26,3.25a3.11,3.11,0,0,0,0,4.41l21.81,21.8a3.11,3.11,0,0,0,4.41,0L92.59,77.33a3.13,3.13,0,0,0,0-4.41L70.78,51.11a3.13,3.13,0,0,0-4.41,0l-3.25,3.26L61,52.2l4.34-4.33a4.67,4.67,0,0,0,0-6.57l2.79-2.8a4.65,4.65,0,0,0,0-6.57l-6.55-6.54a4.65,4.65,0,0,0-6.57,0L52.2,28.18a4.8,4.8,0,0,0-6.58,0l-4.33,4.33-2.16-2.15Zm-9.84-9.85L17.28,32.54,10.75,26,26,10.75ZM18.37,3.12l5.44,5.43L8.55,23.81,3.12,18.38Zm6.55,37.06-5.44-5.43L34.75,19.48l5.43,5.44ZM20.55,77.29a3.07,3.07,0,1,1,0-4.34A3.08,3.08,0,0,1,20.55,77.29ZM23.68,72a5.56,5.56,0,0,0-2.16-2.17l2.31-2.31L26,69.66Zm12.08,3L18.4,57.67A12.38,12.38,0,0,1,35.76,75ZM61,76.21,76.21,61l6.53,6.54L67.48,82.75ZM75.12,90.38,69.68,85,84.94,69.69l5.44,5.43ZM68.58,53.32,74,58.75,58.74,74l-5.43-5.44Zm-7.67,3.25-4.35,4.35-2.15-2.17,4.33-4.34Zm-3.72-29a1.55,1.55,0,0,1,2.17,0h0l6.54,6.55a1.52,1.52,0,0,1,0,2.16l-2.79,2.79-8.7-8.69Zm-9.36,2.83a1.55,1.55,0,0,1,2.2,0l13,13.05a1.53,1.53,0,0,1,.46,1.1,1.57,1.57,0,0,1-.46,1.1L45.67,63.09a1.6,1.6,0,0,1-2.21,0L30.41,50a1.55,1.55,0,0,1,0-2.2Zm-8.74,4.34-4.34,4.34-2.17-2.16,4.35-4.35Z"/></g></svg>